<svg width="408" height="1326" viewBox="0 0 408 1326" fill="none" xmlns="http://www.w3.org/2000/svg">
<path d="M8.98864 22H1.76989V1.63636H9.0483C11.0966 1.63636 12.8598 2.04403 14.3381 2.85938C15.8163 3.66809 16.9531 4.83144 17.7486 6.34943C18.5507 7.86742 18.9517 9.68371 18.9517 11.7983C18.9517 13.9195 18.5507 15.7424 17.7486 17.267C16.9531 18.7917 15.8097 19.9616 14.3182 20.777C12.8333 21.5923 11.0568 22 8.98864 22ZM6.07528 18.3111H8.80966C10.0824 18.3111 11.1529 18.0857 12.0213 17.6349C12.8963 17.1776 13.5526 16.4716 13.9901 15.517C14.4342 14.5559 14.6562 13.3163 14.6562 11.7983C14.6562 10.2936 14.4342 9.06392 13.9901 8.10938C13.5526 7.15483 12.8996 6.45218 12.0312 6.00142C11.1629 5.55066 10.0923 5.32528 8.8196 5.32528H6.07528V18.3111ZM29.3017 22.2983C27.7306 22.2983 26.3784 21.9801 25.2448 21.3438C24.118 20.7008 23.2496 19.7926 22.6397 18.6193C22.0299 17.4394 21.725 16.044 21.725 14.4332C21.725 12.8622 22.0299 11.4834 22.6397 10.2969C23.2496 9.11032 24.108 8.18561 25.215 7.52273C26.3287 6.85985 27.6345 6.52841 29.1326 6.52841C30.1402 6.52841 31.0782 6.69081 31.9465 7.01562C32.8215 7.33381 33.5839 7.81439 34.2335 8.45739C34.8897 9.10038 35.4001 9.90909 35.7647 10.8835C36.1293 11.8513 36.3116 12.9848 36.3116 14.2841V15.4474H23.4153V12.8224H32.3244C32.3244 12.2126 32.1918 11.6723 31.9267 11.2017C31.6615 10.7311 31.2936 10.3632 30.823 10.098C30.359 9.82623 29.8187 9.69034 29.2022 9.69034C28.5592 9.69034 27.9892 9.83949 27.492 10.1378C27.0015 10.4295 26.617 10.8239 26.3386 11.321C26.0602 11.8116 25.9177 12.3584 25.911 12.9616V15.4574C25.911 16.2131 26.0502 16.866 26.3287 17.4162C26.6137 17.9664 27.0147 18.3906 27.5318 18.6889C28.0488 18.9872 28.662 19.1364 29.3713 19.1364C29.8419 19.1364 30.2728 19.0701 30.6639 18.9375C31.055 18.8049 31.3897 18.6061 31.6681 18.3409C31.9465 18.0758 32.1587 17.7509 32.3045 17.3665L36.2221 17.625C36.0233 18.5663 35.6156 19.3883 34.9991 20.0909C34.3893 20.7869 33.6004 21.3305 32.6326 21.7216C31.6715 22.1061 30.5611 22.2983 29.3017 22.2983ZM52.0632 11.0824L48.1854 11.321C48.1191 10.9896 47.9765 10.6913 47.7578 10.4261C47.539 10.1544 47.2507 9.93892 46.8927 9.77983C46.5414 9.61411 46.1205 9.53125 45.63 9.53125C44.9737 9.53125 44.4202 9.67045 43.9694 9.94886C43.5187 10.2206 43.2933 10.5852 43.2933 11.0426C43.2933 11.4072 43.4391 11.7154 43.7308 11.9673C44.0225 12.2192 44.523 12.4214 45.2322 12.5739L47.9964 13.1307C49.4813 13.4356 50.5883 13.9261 51.3175 14.6023C52.0466 15.2784 52.4112 16.1667 52.4112 17.267C52.4112 18.268 52.1162 19.1463 51.5263 19.902C50.9429 20.6577 50.1408 21.2476 49.12 21.6719C48.1058 22.0895 46.9358 22.2983 45.6101 22.2983C43.5883 22.2983 41.9775 21.8774 40.7777 21.0355C39.5845 20.187 38.8852 19.0336 38.6797 17.5753L42.8459 17.3565C42.9718 17.973 43.2767 18.4437 43.7606 18.7685C44.2445 19.0866 44.8643 19.2457 45.62 19.2457C46.3624 19.2457 46.959 19.1032 47.4098 18.8182C47.8672 18.5265 48.0992 18.152 48.1058 17.6946C48.0992 17.3101 47.9368 16.9953 47.6186 16.75C47.3004 16.4981 46.8099 16.3059 46.147 16.1733L43.5021 15.6463C42.0106 15.348 40.9003 14.831 40.1712 14.0952C39.4486 13.3594 39.0873 12.4214 39.0873 11.2812C39.0873 10.3002 39.3525 9.45502 39.8828 8.74574C40.4197 8.03646 41.1721 7.48958 42.1399 7.10511C43.1143 6.72064 44.2545 6.52841 45.5604 6.52841C47.4893 6.52841 49.0073 6.93608 50.1143 7.75142C51.228 8.56676 51.8776 9.67708 52.0632 11.0824ZM55.3585 22V6.72727H59.5943V22H55.3585ZM57.4863 4.75852C56.8566 4.75852 56.3163 4.54972 55.8656 4.1321C55.4214 3.70786 55.1994 3.20076 55.1994 2.61079C55.1994 2.02746 55.4214 1.52699 55.8656 1.10938C56.3163 0.685132 56.8566 0.47301 57.4863 0.47301C58.116 0.47301 58.653 0.685132 59.0971 1.10938C59.5479 1.52699 59.7732 2.02746 59.7732 2.61079C59.7732 3.20076 59.5479 3.70786 59.0971 4.1321C58.653 4.54972 58.116 4.75852 57.4863 4.75852ZM70.1481 28.0455C68.7759 28.0455 67.5993 27.8565 66.6182 27.4787C65.6438 27.1075 64.8682 26.6004 64.2915 25.9574C63.7148 25.3144 63.3403 24.5919 63.1679 23.7898L67.0856 23.2628C67.2049 23.5677 67.3938 23.8527 67.6523 24.1179C67.9108 24.383 68.2522 24.5952 68.6765 24.7543C69.1073 24.92 69.631 25.0028 70.2475 25.0028C71.1689 25.0028 71.9279 24.7775 72.5245 24.3267C73.1277 23.8826 73.4293 23.1368 73.4293 22.0895V19.2955H73.2503C73.0647 19.7197 72.7863 20.1207 72.4151 20.4986C72.0439 20.8764 71.5666 21.1847 70.9833 21.4233C70.3999 21.6619 69.7039 21.7812 68.8952 21.7812C67.7484 21.7812 66.7044 21.5161 65.7631 20.9858C64.8285 20.4489 64.0827 19.6302 63.5259 18.5298C62.9757 17.4228 62.7006 16.0241 62.7006 14.3338C62.7006 12.6037 62.9823 11.1586 63.5458 9.99858C64.1092 8.83854 64.8583 7.97017 65.7929 7.39347C66.7342 6.81676 67.765 6.52841 68.8853 6.52841C69.7404 6.52841 70.4563 6.67424 71.033 6.96591C71.6097 7.25095 72.0737 7.6089 72.425 8.03977C72.783 8.46401 73.0581 8.88163 73.2503 9.29261H73.4094V6.72727H77.6154V22.1491C77.6154 23.4484 77.2972 24.5355 76.6608 25.4105C76.0245 26.2855 75.1428 26.9418 74.016 27.3793C72.8957 27.8234 71.6064 28.0455 70.1481 28.0455ZM70.2375 18.5994C70.9203 18.5994 71.497 18.4304 71.9677 18.0923C72.4449 17.7476 72.8095 17.2571 73.0614 16.6207C73.3199 15.9777 73.4492 15.2088 73.4492 14.3139C73.4492 13.419 73.3232 12.6435 73.0713 11.9872C72.8195 11.3243 72.4549 10.8106 71.9776 10.446C71.5003 10.0814 70.9203 9.89915 70.2375 9.89915C69.5415 9.89915 68.9549 10.0881 68.4776 10.4659C68.0003 10.8371 67.6391 11.3542 67.3938 12.017C67.1485 12.6799 67.0259 13.4455 67.0259 14.3139C67.0259 15.1955 67.1485 15.9579 67.3938 16.6009C67.6457 17.2372 68.007 17.7311 68.4776 18.0824C68.9549 18.4271 69.5415 18.5994 70.2375 18.5994ZM85.5019 13.1705V22H81.2661V6.72727H85.3031V9.42188H85.482C85.8201 8.53362 86.3869 7.83097 87.1823 7.31392C87.9778 6.79025 88.9423 6.52841 90.0758 6.52841C91.1364 6.52841 92.0611 6.76042 92.8499 7.22443C93.6388 7.68845 94.2519 8.35133 94.6894 9.21307C95.1269 10.0682 95.3457 11.089 95.3457 12.2756V22H91.1099V13.0312C91.1165 12.0966 90.8779 11.3674 90.394 10.8438C89.9101 10.3134 89.2439 10.0483 88.3954 10.0483C87.8253 10.0483 87.3215 10.1709 86.884 10.4162C86.4532 10.6615 86.1151 11.0194 85.8698 11.4901C85.6312 11.9541 85.5085 12.5142 85.5019 13.1705ZM105.804 22V1.63636H113.838C115.383 1.63636 116.699 1.93134 117.786 2.52131C118.873 3.10464 119.701 3.91667 120.271 4.95739C120.848 5.99148 121.136 7.18466 121.136 8.53693C121.136 9.8892 120.845 11.0824 120.261 12.1165C119.678 13.1506 118.833 13.956 117.726 14.5327C116.626 15.1094 115.293 15.3977 113.729 15.3977H108.608V11.9474H113.033C113.861 11.9474 114.544 11.8049 115.081 11.5199C115.625 11.2282 116.029 10.8272 116.294 10.3168C116.566 9.79972 116.702 9.20644 116.702 8.53693C116.702 7.86079 116.566 7.27083 116.294 6.76704C116.029 6.25663 115.625 5.86222 115.081 5.58381C114.538 5.29877 113.848 5.15625 113.013 5.15625H110.11V22H105.804ZM124.133 22V6.72727H128.24V9.39205H128.399C128.677 8.44413 129.145 7.72822 129.801 7.24432C130.457 6.75379 131.213 6.50852 132.068 6.50852C132.28 6.50852 132.509 6.52178 132.754 6.54829C132.999 6.57481 133.215 6.61127 133.401 6.65767V10.4162C133.202 10.3565 132.927 10.3035 132.575 10.2571C132.224 10.2107 131.902 10.1875 131.611 10.1875C130.988 10.1875 130.431 10.3234 129.94 10.5952C129.456 10.8603 129.072 11.2315 128.787 11.7088C128.508 12.1861 128.369 12.7363 128.369 13.3594V22H124.133ZM142.06 22.2983C140.516 22.2983 139.18 21.9702 138.053 21.3139C136.933 20.651 136.068 19.7296 135.458 18.5497C134.848 17.3632 134.543 15.9877 134.543 14.4233C134.543 12.8456 134.848 11.4669 135.458 10.2869C136.068 9.10038 136.933 8.17898 138.053 7.52273C139.18 6.85985 140.516 6.52841 142.06 6.52841C143.605 6.52841 144.937 6.85985 146.057 7.52273C147.184 8.17898 148.053 9.10038 148.662 10.2869C149.272 11.4669 149.577 12.8456 149.577 14.4233C149.577 15.9877 149.272 17.3632 148.662 18.5497C148.053 19.7296 147.184 20.651 146.057 21.3139C144.937 21.9702 143.605 22.2983 142.06 22.2983ZM142.08 19.017C142.783 19.017 143.369 18.8182 143.84 18.4205C144.311 18.0161 144.665 17.4659 144.904 16.7699C145.149 16.0739 145.272 15.2817 145.272 14.3935C145.272 13.5052 145.149 12.7131 144.904 12.017C144.665 11.321 144.311 10.7708 143.84 10.3665C143.369 9.96212 142.783 9.75994 142.08 9.75994C141.371 9.75994 140.774 9.96212 140.29 10.3665C139.813 10.7708 139.452 11.321 139.206 12.017C138.968 12.7131 138.848 13.5052 138.848 14.3935C138.848 15.2817 138.968 16.0739 139.206 16.7699C139.452 17.4659 139.813 18.0161 140.29 18.4205C140.774 18.8182 141.371 19.017 142.08 19.017ZM159.512 22.2983C157.948 22.2983 156.602 21.9669 155.475 21.304C154.355 20.6345 153.493 19.7064 152.89 18.5199C152.293 17.3333 151.995 15.9678 151.995 14.4233C151.995 12.8589 152.297 11.4867 152.9 10.3068C153.51 9.12026 154.375 8.19555 155.495 7.53267C156.615 6.86316 157.948 6.52841 159.492 6.52841C160.825 6.52841 161.991 6.77036 162.992 7.25426C163.993 7.73816 164.785 8.41761 165.369 9.29261C165.952 10.1676 166.273 11.1951 166.333 12.375H162.336C162.223 11.6127 161.925 10.9995 161.441 10.5355C160.964 10.0649 160.337 9.82955 159.562 9.82955C158.905 9.82955 158.332 10.0085 157.842 10.3665C157.358 10.7178 156.98 11.2315 156.708 11.9077C156.436 12.5838 156.3 13.4025 156.3 14.3636C156.3 15.3381 156.433 16.1667 156.698 16.8494C156.97 17.5322 157.351 18.0526 157.842 18.4105C158.332 18.7685 158.905 18.9474 159.562 18.9474C160.046 18.9474 160.48 18.848 160.864 18.6491C161.255 18.4503 161.577 18.1619 161.829 17.7841C162.087 17.3996 162.256 16.9389 162.336 16.402H166.333C166.267 17.5687 165.949 18.5961 165.378 19.4844C164.815 20.366 164.036 21.0554 163.042 21.5526C162.048 22.0497 160.871 22.2983 159.512 22.2983ZM176.285 22.2983C174.714 22.2983 173.362 21.9801 172.228 21.3438C171.102 20.7008 170.233 19.7926 169.623 18.6193C169.013 17.4394 168.709 16.044 168.709 14.4332C168.709 12.8622 169.013 11.4834 169.623 10.2969C170.233 9.11032 171.092 8.18561 172.199 7.52273C173.312 6.85985 174.618 6.52841 176.116 6.52841C177.124 6.52841 178.062 6.69081 178.93 7.01562C179.805 7.33381 180.567 7.81439 181.217 8.45739C181.873 9.10038 182.384 9.90909 182.748 10.8835C183.113 11.8513 183.295 12.9848 183.295 14.2841V15.4474H170.399V12.8224H179.308C179.308 12.2126 179.175 11.6723 178.91 11.2017C178.645 10.7311 178.277 10.3632 177.807 10.098C177.343 9.82623 176.802 9.69034 176.186 9.69034C175.543 9.69034 174.973 9.83949 174.476 10.1378C173.985 10.4295 173.601 10.8239 173.322 11.321C173.044 11.8116 172.901 12.3584 172.895 12.9616V15.4574C172.895 16.2131 173.034 16.866 173.312 17.4162C173.597 17.9664 173.998 18.3906 174.515 18.6889C175.032 18.9872 175.646 19.1364 176.355 19.1364C176.826 19.1364 177.256 19.0701 177.647 18.9375C178.039 18.8049 178.373 18.6061 178.652 18.3409C178.93 18.0758 179.142 17.7509 179.288 17.3665L183.206 17.625C183.007 18.5663 182.599 19.3883 181.983 20.0909C181.373 20.7869 180.584 21.3305 179.616 21.7216C178.655 22.1061 177.545 22.2983 176.285 22.2983ZM199.047 11.0824L195.169 11.321C195.103 10.9896 194.96 10.6913 194.741 10.4261C194.523 10.1544 194.234 9.93892 193.876 9.77983C193.525 9.61411 193.104 9.53125 192.614 9.53125C191.957 9.53125 191.404 9.67045 190.953 9.94886C190.502 10.2206 190.277 10.5852 190.277 11.0426C190.277 11.4072 190.423 11.7154 190.714 11.9673C191.006 12.2192 191.507 12.4214 192.216 12.5739L194.98 13.1307C196.465 13.4356 197.572 13.9261 198.301 14.6023C199.03 15.2784 199.395 16.1667 199.395 17.267C199.395 18.268 199.1 19.1463 198.51 19.902C197.927 20.6577 197.124 21.2476 196.104 21.6719C195.089 22.0895 193.919 22.2983 192.594 22.2983C190.572 22.2983 188.961 21.8774 187.761 21.0355C186.568 20.187 185.869 19.0336 185.663 17.5753L189.829 17.3565C189.955 17.973 190.26 18.4437 190.744 18.7685C191.228 19.0866 191.848 19.2457 192.604 19.2457C193.346 19.2457 193.943 19.1032 194.393 18.8182C194.851 18.5265 195.083 18.152 195.089 17.6946C195.083 17.3101 194.92 16.9953 194.602 16.75C194.284 16.4981 193.793 16.3059 193.131 16.1733L190.486 15.6463C188.994 15.348 187.884 14.831 187.155 14.0952C186.432 13.3594 186.071 12.4214 186.071 11.2812C186.071 10.3002 186.336 9.45502 186.866 8.74574C187.403 8.03646 188.156 7.48958 189.123 7.10511C190.098 6.72064 191.238 6.52841 192.544 6.52841C194.473 6.52841 195.991 6.93608 197.098 7.75142C198.212 8.56676 198.861 9.67708 199.047 11.0824ZM215.049 11.0824L211.172 11.321C211.105 10.9896 210.963 10.6913 210.744 10.4261C210.525 10.1544 210.237 9.93892 209.879 9.77983C209.528 9.61411 209.107 9.53125 208.616 9.53125C207.96 9.53125 207.406 9.67045 206.956 9.94886C206.505 10.2206 206.28 10.5852 206.28 11.0426C206.28 11.4072 206.425 11.7154 206.717 11.9673C207.009 12.2192 207.509 12.4214 208.218 12.5739L210.983 13.1307C212.468 13.4356 213.575 13.9261 214.304 14.6023C215.033 15.2784 215.397 16.1667 215.397 17.267C215.397 18.268 215.102 19.1463 214.513 19.902C213.929 20.6577 213.127 21.2476 212.106 21.6719C211.092 22.0895 209.922 22.2983 208.596 22.2983C206.575 22.2983 204.964 21.8774 203.764 21.0355C202.571 20.187 201.871 19.0336 201.666 17.5753L205.832 17.3565C205.958 17.973 206.263 18.4437 206.747 18.7685C207.231 19.0866 207.851 19.2457 208.606 19.2457C209.349 19.2457 209.945 19.1032 210.396 18.8182C210.853 18.5265 211.085 18.152 211.092 17.6946C211.085 17.3101 210.923 16.9953 210.605 16.75C210.287 16.4981 209.796 16.3059 209.133 16.1733L206.488 15.6463C204.997 15.348 203.887 14.831 203.157 14.0952C202.435 13.3594 202.074 12.4214 202.074 11.2812C202.074 10.3002 202.339 9.45502 202.869 8.74574C203.406 8.03646 204.158 7.48958 205.126 7.10511C206.101 6.72064 207.241 6.52841 208.547 6.52841C210.476 6.52841 211.994 6.93608 213.101 7.75142C214.214 8.56676 214.864 9.67708 215.049 11.0824Z" fill="#00522D"/>
<rect y="46" width="408" height="1280" rx="48" fill="#00522D"/>
<g filter="url(#filter0_d_117_1971)">
<rect x="57" y="106" width="294" height="200" rx="36" fill="white" shape-rendering="crispEdges"/>
<g clip-path="url(#clip0_117_1971)">
<path d="M223.363 192.824L216.34 185.801C216.34 185.801 216.34 185.801 216.34 185.8C216.339 185.8 216.339 185.8 216.339 185.8L213.829 183.289C212.981 182.441 211.6 182.441 210.752 183.289L210.444 183.597L209.384 182.537C211.461 180.046 212.713 176.845 212.713 173.356C212.713 165.44 206.273 159 198.357 159C190.441 159 184.001 165.44 184.001 173.356C184.001 181.272 190.441 187.712 198.357 187.712C201.846 187.712 205.047 186.46 207.538 184.383L208.598 185.443L208.29 185.751C207.442 186.599 207.442 187.979 208.29 188.828L217.825 198.362C218.675 199.212 220.052 199.213 220.902 198.362L223.363 195.901C224.212 195.053 224.212 193.673 223.363 192.824ZM198.357 185.101C191.88 185.101 186.612 179.832 186.612 173.356C186.612 166.88 191.88 161.611 198.357 161.611C204.833 161.611 210.102 166.88 210.102 173.356C210.102 179.832 204.833 185.101 198.357 185.101ZM210.444 187.289L212.29 185.443L213.571 186.724L211.724 188.57L210.444 187.289ZM219.363 196.209L213.571 190.416L215.417 188.57L221.209 194.363L219.363 196.209Z" fill="#333333"/>
<path d="M198.356 164.221C197.635 164.221 197.051 164.805 197.051 165.526C197.051 166.247 197.635 166.831 198.356 166.831C201.953 166.831 204.88 169.758 204.88 173.355C204.88 174.076 205.464 174.66 206.185 174.66C206.906 174.66 207.491 174.076 207.491 173.355C207.491 168.318 203.393 164.221 198.356 164.221Z" fill="#333333"/>
</g>
<path d="M152.518 244H145.299V223.636H152.578C154.626 223.636 156.389 224.044 157.867 224.859C159.346 225.668 160.482 226.831 161.278 228.349C162.08 229.867 162.481 231.684 162.481 233.798C162.481 235.92 162.08 237.742 161.278 239.267C160.482 240.792 159.339 241.962 157.847 242.777C156.363 243.592 154.586 244 152.518 244ZM149.605 240.311H152.339C153.612 240.311 154.682 240.086 155.551 239.635C156.426 239.178 157.082 238.472 157.519 237.517C157.963 236.556 158.186 235.316 158.186 233.798C158.186 232.294 157.963 231.064 157.519 230.109C157.082 229.155 156.429 228.452 155.561 228.001C154.692 227.551 153.622 227.325 152.349 227.325H149.605V240.311ZM165.591 244V228.727H169.827V244H165.591ZM167.719 226.759C167.089 226.759 166.549 226.55 166.098 226.132C165.654 225.708 165.432 225.201 165.432 224.611C165.432 224.027 165.654 223.527 166.098 223.109C166.549 222.685 167.089 222.473 167.719 222.473C168.348 222.473 168.885 222.685 169.329 223.109C169.78 223.527 170.006 224.027 170.006 224.611C170.006 225.201 169.78 225.708 169.329 226.132C168.885 226.55 168.348 226.759 167.719 226.759ZM185.927 233.082L182.049 233.321C181.983 232.99 181.84 232.691 181.622 232.426C181.403 232.154 181.115 231.939 180.757 231.78C180.405 231.614 179.984 231.531 179.494 231.531C178.838 231.531 178.284 231.67 177.833 231.949C177.383 232.221 177.157 232.585 177.157 233.043C177.157 233.407 177.303 233.715 177.595 233.967C177.886 234.219 178.387 234.421 179.096 234.574L181.86 235.131C183.345 235.436 184.452 235.926 185.181 236.602C185.91 237.278 186.275 238.167 186.275 239.267C186.275 240.268 185.98 241.146 185.39 241.902C184.807 242.658 184.005 243.248 182.984 243.672C181.97 244.089 180.8 244.298 179.474 244.298C177.452 244.298 175.841 243.877 174.642 243.036C173.448 242.187 172.749 241.034 172.544 239.575L176.71 239.357C176.836 239.973 177.141 240.444 177.624 240.768C178.108 241.087 178.728 241.246 179.484 241.246C180.226 241.246 180.823 241.103 181.274 240.818C181.731 240.527 181.963 240.152 181.97 239.695C181.963 239.31 181.801 238.995 181.482 238.75C181.164 238.498 180.674 238.306 180.011 238.173L177.366 237.646C175.874 237.348 174.764 236.831 174.035 236.095C173.312 235.359 172.951 234.421 172.951 233.281C172.951 232.3 173.216 231.455 173.747 230.746C174.284 230.036 175.036 229.49 176.004 229.105C176.978 228.721 178.118 228.528 179.424 228.528C181.353 228.528 182.871 228.936 183.978 229.751C185.092 230.567 185.741 231.677 185.927 233.082ZM195.843 244.298C194.278 244.298 192.933 243.967 191.806 243.304C190.686 242.634 189.824 241.706 189.221 240.52C188.624 239.333 188.326 237.968 188.326 236.423C188.326 234.859 188.627 233.487 189.231 232.307C189.84 231.12 190.706 230.196 191.826 229.533C192.946 228.863 194.278 228.528 195.823 228.528C197.155 228.528 198.322 228.77 199.323 229.254C200.324 229.738 201.116 230.418 201.699 231.293C202.283 232.168 202.604 233.195 202.664 234.375H198.667C198.554 233.613 198.256 233 197.772 232.536C197.295 232.065 196.668 231.83 195.893 231.83C195.236 231.83 194.663 232.009 194.172 232.366C193.689 232.718 193.311 233.232 193.039 233.908C192.767 234.584 192.631 235.402 192.631 236.364C192.631 237.338 192.764 238.167 193.029 238.849C193.301 239.532 193.682 240.053 194.172 240.411C194.663 240.768 195.236 240.947 195.893 240.947C196.376 240.947 196.811 240.848 197.195 240.649C197.586 240.45 197.908 240.162 198.16 239.784C198.418 239.4 198.587 238.939 198.667 238.402H202.664C202.598 239.569 202.279 240.596 201.709 241.484C201.146 242.366 200.367 243.055 199.373 243.553C198.378 244.05 197.202 244.298 195.843 244.298ZM212.276 244.298C210.732 244.298 209.396 243.97 208.269 243.314C207.149 242.651 206.284 241.73 205.674 240.55C205.064 239.363 204.759 237.988 204.759 236.423C204.759 234.846 205.064 233.467 205.674 232.287C206.284 231.1 207.149 230.179 208.269 229.523C209.396 228.86 210.732 228.528 212.276 228.528C213.821 228.528 215.153 228.86 216.274 229.523C217.401 230.179 218.269 231.1 218.879 232.287C219.489 233.467 219.794 234.846 219.794 236.423C219.794 237.988 219.489 239.363 218.879 240.55C218.269 241.73 217.401 242.651 216.274 243.314C215.153 243.97 213.821 244.298 212.276 244.298ZM212.296 241.017C212.999 241.017 213.586 240.818 214.056 240.42C214.527 240.016 214.882 239.466 215.12 238.77C215.365 238.074 215.488 237.282 215.488 236.393C215.488 235.505 215.365 234.713 215.12 234.017C214.882 233.321 214.527 232.771 214.056 232.366C213.586 231.962 212.999 231.76 212.296 231.76C211.587 231.76 210.99 231.962 210.507 232.366C210.029 232.771 209.668 233.321 209.423 234.017C209.184 234.713 209.065 235.505 209.065 236.393C209.065 237.282 209.184 238.074 209.423 238.77C209.668 239.466 210.029 240.016 210.507 240.42C210.99 240.818 211.587 241.017 212.296 241.017ZM236.294 228.727L230.955 244H226.182L220.843 228.727H225.317L228.489 239.655H228.648L231.81 228.727H236.294ZM244.93 244.298C243.359 244.298 242.007 243.98 240.873 243.344C239.746 242.701 238.878 241.793 238.268 240.619C237.658 239.439 237.353 238.044 237.353 236.433C237.353 234.862 237.658 233.483 238.268 232.297C238.878 231.11 239.736 230.186 240.843 229.523C241.957 228.86 243.263 228.528 244.761 228.528C245.768 228.528 246.706 228.691 247.575 229.016C248.45 229.334 249.212 229.814 249.862 230.457C250.518 231.1 251.028 231.909 251.393 232.884C251.758 233.851 251.94 234.985 251.94 236.284V237.447H239.044V234.822H247.953C247.953 234.213 247.82 233.672 247.555 233.202C247.29 232.731 246.922 232.363 246.451 232.098C245.987 231.826 245.447 231.69 244.83 231.69C244.187 231.69 243.617 231.839 243.12 232.138C242.63 232.429 242.245 232.824 241.967 233.321C241.688 233.812 241.546 234.358 241.539 234.962V237.457C241.539 238.213 241.678 238.866 241.957 239.416C242.242 239.966 242.643 240.391 243.16 240.689C243.677 240.987 244.29 241.136 244.999 241.136C245.47 241.136 245.901 241.07 246.292 240.938C246.683 240.805 247.018 240.606 247.296 240.341C247.575 240.076 247.787 239.751 247.933 239.366L251.85 239.625C251.651 240.566 251.244 241.388 250.627 242.091C250.017 242.787 249.229 243.33 248.261 243.722C247.3 244.106 246.189 244.298 244.93 244.298ZM254.704 244V228.727H258.811V231.392H258.97C259.248 230.444 259.715 229.728 260.372 229.244C261.028 228.754 261.784 228.509 262.639 228.509C262.851 228.509 263.079 228.522 263.325 228.548C263.57 228.575 263.785 228.611 263.971 228.658V232.416C263.772 232.357 263.497 232.304 263.146 232.257C262.794 232.211 262.473 232.188 262.181 232.188C261.558 232.188 261.001 232.323 260.511 232.595C260.027 232.86 259.642 233.232 259.357 233.709C259.079 234.186 258.94 234.736 258.94 235.359V244H254.704Z" fill="#333333"/>
</g>
<g filter="url(#filter1_d_117_1971)">
<rect x="57" y="346" width="294" height="200" rx="36" fill="white" shape-rendering="crispEdges"/>
<path d="M202.333 430.251C200.967 430.255 199.615 429.967 198.369 429.407C197.122 428.846 196.01 428.025 195.108 426.999C194.205 425.973 193.532 424.766 193.133 423.459C192.735 422.152 192.621 420.774 192.799 419.419C192.977 418.065 193.443 416.763 194.165 415.603C194.887 414.443 195.849 413.451 196.986 412.693C198.124 411.935 199.41 411.429 200.758 411.209C202.107 410.989 203.487 411.06 204.806 411.417C205.112 411.515 205.368 411.727 205.522 412.008C205.676 412.29 205.716 412.619 205.634 412.929C205.552 413.239 205.354 413.506 205.081 413.675C204.808 413.843 204.48 413.9 204.166 413.834C203.569 413.67 202.953 413.586 202.333 413.584C200.932 413.584 199.563 413.999 198.398 414.778C197.233 415.556 196.325 416.662 195.789 417.957C195.253 419.251 195.113 420.675 195.386 422.049C195.659 423.423 196.334 424.685 197.324 425.676C198.315 426.667 199.577 427.341 200.951 427.614C202.325 427.888 203.749 427.748 205.044 427.211C206.338 426.675 207.444 425.767 208.223 424.603C209.001 423.438 209.416 422.068 209.416 420.667C209.417 420.048 209.336 419.432 209.175 418.834C209.098 418.517 209.148 418.182 209.315 417.901C209.481 417.62 209.751 417.415 210.066 417.33C210.381 417.246 210.717 417.287 211.002 417.447C211.287 417.606 211.499 417.871 211.591 418.184C211.972 419.604 212.022 421.093 211.735 422.535C211.448 423.977 210.834 425.334 209.939 426.501C209.044 427.668 207.892 428.613 206.573 429.263C205.254 429.913 203.804 430.251 202.333 430.251Z" fill="#333333"/>
<path d="M202.333 436.918C199.853 436.92 197.406 436.355 195.178 435.265C192.95 434.175 191.001 432.589 189.481 430.63C187.961 428.67 186.909 426.389 186.406 423.96C185.904 421.532 185.964 419.02 186.582 416.619C187.2 414.217 188.36 411.988 189.972 410.104C191.584 408.219 193.607 406.729 195.884 405.747C198.161 404.764 200.633 404.317 203.11 404.437C205.587 404.558 208.004 405.244 210.175 406.443C210.322 406.521 210.452 406.627 210.557 406.756C210.663 406.885 210.741 407.033 210.788 407.193C210.836 407.352 210.85 407.52 210.832 407.685C210.814 407.851 210.763 408.011 210.682 408.156C210.601 408.301 210.491 408.429 210.36 408.532C210.229 408.634 210.079 408.71 209.919 408.753C209.758 408.797 209.591 408.808 209.426 408.787C209.261 408.765 209.102 408.71 208.958 408.626C206.931 407.502 204.651 406.914 202.333 406.918C199.614 406.918 196.955 407.724 194.694 409.235C192.433 410.746 190.671 412.894 189.63 415.406C188.589 417.919 188.317 420.683 188.848 423.35C189.378 426.018 190.688 428.468 192.611 430.391C194.534 432.314 196.984 433.623 199.651 434.154C202.318 434.684 205.083 434.412 207.595 433.371C210.108 432.331 212.255 430.568 213.766 428.307C215.277 426.046 216.083 423.387 216.083 420.668C216.087 418.35 215.499 416.07 214.375 414.043C214.222 413.754 214.188 413.417 214.281 413.103C214.374 412.79 214.585 412.525 214.871 412.366C215.157 412.207 215.493 412.166 215.809 412.252C216.124 412.338 216.393 412.544 216.558 412.826C217.925 415.299 218.622 418.086 218.582 420.912C218.542 423.737 217.765 426.503 216.328 428.936C214.892 431.369 212.845 433.385 210.391 434.785C207.936 436.185 205.159 436.92 202.333 436.918Z" fill="#333333"/>
<path d="M202.333 421.917C202.086 421.917 201.845 421.844 201.639 421.706C201.434 421.569 201.274 421.374 201.18 421.146C201.085 420.917 201.06 420.666 201.108 420.424C201.157 420.181 201.275 419.959 201.45 419.784L214.783 406.451C215.02 406.23 215.334 406.11 215.658 406.115C215.981 406.121 216.29 406.252 216.519 406.481C216.748 406.71 216.88 407.019 216.885 407.343C216.891 407.667 216.771 407.98 216.55 408.217L203.217 421.551C203.101 421.667 202.963 421.76 202.812 421.823C202.66 421.886 202.498 421.918 202.333 421.917Z" fill="#333333"/>
<path d="M220.667 408.584H215.667C215.335 408.584 215.017 408.452 214.783 408.218C214.548 407.983 214.417 407.666 214.417 407.334V402.334C214.417 402.002 214.548 401.685 214.783 401.45C215.017 401.216 215.335 401.084 215.667 401.084C215.998 401.084 216.316 401.216 216.55 401.45C216.785 401.685 216.917 402.002 216.917 402.334V406.084H220.667C220.998 406.084 221.316 406.216 221.55 406.45C221.785 406.685 221.917 407.002 221.917 407.334C221.917 407.666 221.785 407.983 221.55 408.218C221.316 408.452 220.998 408.584 220.667 408.584Z" fill="#333333"/>
<path d="M202.333 423.168C203.714 423.168 204.833 422.049 204.833 420.668C204.833 419.287 203.714 418.168 202.333 418.168C200.953 418.168 199.833 419.287 199.833 420.668C199.833 422.049 200.953 423.168 202.333 423.168Z" fill="#333333"/>
<path d="M168.145 484H160.926V463.636H168.205C170.253 463.636 172.016 464.044 173.494 464.859C174.973 465.668 176.109 466.831 176.905 468.349C177.707 469.867 178.108 471.684 178.108 473.798C178.108 475.92 177.707 477.742 176.905 479.267C176.109 480.792 174.966 481.962 173.474 482.777C171.99 483.592 170.213 484 168.145 484ZM165.232 480.311H167.966C169.239 480.311 170.309 480.086 171.178 479.635C172.053 479.178 172.709 478.472 173.146 477.517C173.59 476.556 173.812 475.316 173.812 473.798C173.812 472.294 173.59 471.064 173.146 470.109C172.709 469.155 172.056 468.452 171.188 468.001C170.319 467.551 169.249 467.325 167.976 467.325H165.232V480.311ZM188.178 484.298C186.607 484.298 185.255 483.98 184.121 483.344C182.994 482.701 182.126 481.793 181.516 480.619C180.906 479.439 180.601 478.044 180.601 476.433C180.601 474.862 180.906 473.483 181.516 472.297C182.126 471.11 182.984 470.186 184.091 469.523C185.205 468.86 186.511 468.528 188.009 468.528C189.016 468.528 189.954 468.691 190.823 469.016C191.698 469.334 192.46 469.814 193.11 470.457C193.766 471.1 194.276 471.909 194.641 472.884C195.006 473.851 195.188 474.985 195.188 476.284V477.447H182.292V474.822H191.201C191.201 474.213 191.068 473.672 190.803 473.202C190.538 472.731 190.17 472.363 189.699 472.098C189.235 471.826 188.695 471.69 188.078 471.69C187.435 471.69 186.865 471.839 186.368 472.138C185.878 472.429 185.493 472.824 185.215 473.321C184.936 473.812 184.794 474.358 184.787 474.962V477.457C184.787 478.213 184.926 478.866 185.205 479.416C185.49 479.966 185.891 480.391 186.408 480.689C186.925 480.987 187.538 481.136 188.248 481.136C188.718 481.136 189.149 481.07 189.54 480.938C189.931 480.805 190.266 480.606 190.544 480.341C190.823 480.076 191.035 479.751 191.181 479.366L195.098 479.625C194.9 480.566 194.492 481.388 193.875 482.091C193.266 482.787 192.477 483.33 191.509 483.722C190.548 484.106 189.437 484.298 188.178 484.298ZM206.165 468.727V471.909H196.739V468.727H206.165ZM198.897 484V467.624C198.897 466.517 199.112 465.598 199.543 464.869C199.98 464.14 200.577 463.593 201.333 463.229C202.088 462.864 202.947 462.682 203.908 462.682C204.558 462.682 205.151 462.732 205.688 462.831C206.231 462.93 206.636 463.02 206.901 463.099L206.145 466.281C205.98 466.228 205.774 466.179 205.529 466.132C205.29 466.086 205.045 466.062 204.793 466.062C204.17 466.062 203.736 466.208 203.49 466.5C203.245 466.785 203.123 467.186 203.123 467.703V484H198.897ZM208.753 484V468.727H212.989V484H208.753ZM210.881 466.759C210.251 466.759 209.711 466.55 209.26 466.132C208.816 465.708 208.594 465.201 208.594 464.611C208.594 464.027 208.816 463.527 209.26 463.109C209.711 462.685 210.251 462.473 210.881 462.473C211.51 462.473 212.047 462.685 212.491 463.109C212.942 463.527 213.168 464.027 213.168 464.611C213.168 465.201 212.942 465.708 212.491 466.132C212.047 466.55 211.51 466.759 210.881 466.759ZM220.618 475.17V484H216.382V468.727H220.419V471.422H220.598C220.936 470.534 221.502 469.831 222.298 469.314C223.093 468.79 224.058 468.528 225.191 468.528C226.252 468.528 227.177 468.76 227.966 469.224C228.754 469.688 229.368 470.351 229.805 471.213C230.243 472.068 230.461 473.089 230.461 474.276V484H226.225V475.031C226.232 474.097 225.993 473.367 225.51 472.844C225.026 472.313 224.359 472.048 223.511 472.048C222.941 472.048 222.437 472.171 222 472.416C221.569 472.661 221.231 473.019 220.985 473.49C220.747 473.954 220.624 474.514 220.618 475.17ZM240.76 484.298C239.189 484.298 237.837 483.98 236.703 483.344C235.576 482.701 234.708 481.793 234.098 480.619C233.488 479.439 233.183 478.044 233.183 476.433C233.183 474.862 233.488 473.483 234.098 472.297C234.708 471.11 235.566 470.186 236.673 469.523C237.787 468.86 239.093 468.528 240.591 468.528C241.598 468.528 242.536 468.691 243.405 469.016C244.28 469.334 245.042 469.814 245.692 470.457C246.348 471.1 246.858 471.909 247.223 472.884C247.588 473.851 247.77 474.985 247.77 476.284V477.447H234.874V474.822H243.783C243.783 474.213 243.65 473.672 243.385 473.202C243.12 472.731 242.752 472.363 242.281 472.098C241.817 471.826 241.277 471.69 240.661 471.69C240.018 471.69 239.447 471.839 238.95 472.138C238.46 472.429 238.075 472.824 237.797 473.321C237.518 473.812 237.376 474.358 237.369 474.962V477.457C237.369 478.213 237.509 478.866 237.787 479.416C238.072 479.966 238.473 480.391 238.99 480.689C239.507 480.987 240.12 481.136 240.83 481.136C241.3 481.136 241.731 481.07 242.122 480.938C242.513 480.805 242.848 480.606 243.126 480.341C243.405 480.076 243.617 479.751 243.763 479.366L247.68 479.625C247.482 480.566 247.074 481.388 246.457 482.091C245.848 482.787 245.059 483.33 244.091 483.722C243.13 484.106 242.019 484.298 240.76 484.298Z" fill="#333333"/>
</g>
<g filter="url(#filter2_d_117_1971)">
<rect x="57" y="586" width="294" height="200" rx="36" fill="white" shape-rendering="crispEdges"/>
<g clip-path="url(#clip1_117_1971)">
<path d="M213.237 659.839L214.219 658.857C214.219 658.857 214.22 658.857 214.22 658.857C214.22 658.856 214.221 658.856 214.221 658.856L217.684 655.392C217.684 655.392 217.685 655.392 217.685 655.392C217.685 655.391 217.685 655.391 217.685 655.391L221.15 651.927C221.15 651.927 221.15 651.927 221.15 651.927C221.15 651.927 221.15 651.927 221.15 651.926L223.053 650.024C223.664 649.413 224 648.601 224 647.737C224 646.873 223.664 646.061 223.053 645.45L217.55 639.947C216.939 639.337 216.127 639 215.263 639C214.399 639 213.587 639.336 212.976 639.947L203.161 649.763L196.498 643.1C195.383 641.985 193.985 641.191 192.456 640.804L185.459 639.036C185.059 638.935 184.635 639.051 184.343 639.343C184.051 639.635 183.935 640.059 184.036 640.459L185.805 647.456C186.191 648.985 186.985 650.383 188.1 651.498L194.763 658.161L184.947 667.976C184.336 668.587 184 669.399 184 670.263C184 671.127 184.336 671.939 184.947 672.55L190.45 678.053C191.061 678.664 191.873 679 192.737 679C193.601 679 194.413 678.664 195.024 678.053L200.389 672.687C200.39 672.687 200.391 672.686 200.392 672.685C200.392 672.684 200.393 672.683 200.394 672.682L204.839 668.237L213.863 677.261C215.02 678.418 216.541 678.997 218.062 678.997C219.582 678.997 221.103 678.419 222.261 677.261C224.576 674.945 224.576 671.178 222.261 668.863L213.237 659.839ZM188.077 646.881L186.79 641.79L191.881 643.077C193.001 643.36 194.024 643.941 194.841 644.758L195.765 645.682L190.681 650.765L189.757 649.841C188.941 649.024 188.36 648.001 188.077 646.881ZM192.339 652.422L197.422 647.339L201.503 651.42L196.42 656.504L192.339 652.422ZM192.737 676.656C192.499 676.656 192.276 676.564 192.108 676.395L186.605 670.893C186.436 670.724 186.344 670.501 186.344 670.263C186.344 670.025 186.436 669.802 186.605 669.633L214.634 641.605C214.802 641.436 215.025 641.344 215.263 641.344C215.501 641.344 215.724 641.436 215.893 641.605L221.396 647.107C221.564 647.276 221.656 647.499 221.656 647.737C221.656 647.975 221.564 648.198 221.396 648.367L220.321 649.441L216.746 645.866C216.289 645.408 215.547 645.408 215.089 645.866C214.632 646.324 214.632 647.066 215.089 647.523L218.664 651.098L216.856 652.906L215.014 651.064C214.556 650.606 213.814 650.606 213.357 651.064C212.899 651.521 212.899 652.263 213.357 652.721L215.199 654.563L213.391 656.371L209.817 652.796C209.359 652.338 208.617 652.338 208.159 652.796C207.702 653.253 207.702 653.995 208.159 654.453L211.734 658.028L209.926 659.836L208.084 657.993C207.627 657.536 206.885 657.536 206.427 657.993C205.969 658.451 205.969 659.193 206.427 659.651L208.269 661.493L206.493 663.269L202.918 659.694C202.46 659.237 201.718 659.237 201.261 659.694C200.803 660.152 200.803 660.894 201.261 661.352L204.836 664.926L203.028 666.734L201.186 664.892C200.728 664.434 199.986 664.434 199.528 664.892C199.071 665.349 199.071 666.091 199.528 666.549L201.371 668.391L199.563 670.199L195.988 666.624C195.531 666.167 194.789 666.167 194.331 666.624C193.873 667.082 193.873 667.824 194.331 668.282L197.906 671.856L196.098 673.664L194.256 671.822C193.798 671.364 193.056 671.364 192.599 671.822C192.141 672.279 192.141 673.021 192.599 673.479L194.441 675.321L193.366 676.395C193.198 676.564 192.975 676.656 192.737 676.656ZM207.317 665.76C207.318 665.758 207.32 665.757 207.322 665.755C207.323 665.753 207.325 665.752 207.326 665.75L210.754 662.323C210.754 662.322 210.755 662.322 210.755 662.321C210.756 662.321 210.756 662.321 210.756 662.32L211.58 661.497L216.546 666.462L211.462 671.546L206.497 666.58L207.317 665.76ZM220.603 675.603C219.202 677.005 216.921 677.005 215.52 675.603L213.12 673.203L218.203 668.12L220.604 670.52C222.005 671.922 222.005 674.202 220.603 675.603Z" fill="#333333"/>
</g>
<path d="M165.192 724H157.973V703.636H165.251C167.3 703.636 169.063 704.044 170.541 704.859C172.019 705.668 173.156 706.831 173.952 708.349C174.754 709.867 175.155 711.684 175.155 713.798C175.155 715.92 174.754 717.742 173.952 719.267C173.156 720.792 172.013 721.962 170.521 722.777C169.036 723.592 167.26 724 165.192 724ZM162.278 720.311H165.013C166.286 720.311 167.356 720.086 168.224 719.635C169.099 719.178 169.756 718.472 170.193 717.517C170.637 716.556 170.859 715.316 170.859 713.798C170.859 712.294 170.637 711.064 170.193 710.109C169.756 709.155 169.103 708.452 168.234 708.001C167.366 707.551 166.295 707.325 165.023 707.325H162.278V720.311ZM185.225 724.298C183.654 724.298 182.301 723.98 181.168 723.344C180.041 722.701 179.173 721.793 178.563 720.619C177.953 719.439 177.648 718.044 177.648 716.433C177.648 714.862 177.953 713.483 178.563 712.297C179.173 711.11 180.031 710.186 181.138 709.523C182.252 708.86 183.558 708.528 185.056 708.528C186.063 708.528 187.001 708.691 187.87 709.016C188.745 709.334 189.507 709.814 190.157 710.457C190.813 711.1 191.323 711.909 191.688 712.884C192.052 713.851 192.235 714.985 192.235 716.284V717.447H179.338V714.822H188.248C188.248 714.213 188.115 713.672 187.85 713.202C187.585 712.731 187.217 712.363 186.746 712.098C186.282 711.826 185.742 711.69 185.125 711.69C184.482 711.69 183.912 711.839 183.415 712.138C182.925 712.429 182.54 712.824 182.262 713.321C181.983 713.812 181.841 714.358 181.834 714.962V717.457C181.834 718.213 181.973 718.866 182.252 719.416C182.537 719.966 182.938 720.391 183.455 720.689C183.972 720.987 184.585 721.136 185.294 721.136C185.765 721.136 186.196 721.07 186.587 720.938C186.978 720.805 187.313 720.606 187.591 720.341C187.87 720.076 188.082 719.751 188.228 719.366L192.145 719.625C191.946 720.566 191.539 721.388 190.922 722.091C190.312 722.787 189.524 723.33 188.556 723.722C187.595 724.106 186.484 724.298 185.225 724.298ZM207.706 713.082L203.828 713.321C203.762 712.99 203.62 712.691 203.401 712.426C203.182 712.154 202.894 711.939 202.536 711.78C202.185 711.614 201.764 711.531 201.273 711.531C200.617 711.531 200.063 711.67 199.613 711.949C199.162 712.221 198.936 712.585 198.936 713.043C198.936 713.407 199.082 713.715 199.374 713.967C199.666 714.219 200.166 714.421 200.875 714.574L203.64 715.131C205.124 715.436 206.231 715.926 206.961 716.602C207.69 717.278 208.054 718.167 208.054 719.267C208.054 720.268 207.759 721.146 207.169 721.902C206.586 722.658 205.784 723.248 204.763 723.672C203.749 724.089 202.579 724.298 201.253 724.298C199.231 724.298 197.621 723.877 196.421 723.036C195.228 722.187 194.528 721.034 194.323 719.575L198.489 719.357C198.615 719.973 198.92 720.444 199.404 720.768C199.888 721.087 200.507 721.246 201.263 721.246C202.006 721.246 202.602 721.103 203.053 720.818C203.51 720.527 203.742 720.152 203.749 719.695C203.742 719.31 203.58 718.995 203.262 718.75C202.944 718.498 202.453 718.306 201.79 718.173L199.145 717.646C197.654 717.348 196.543 716.831 195.814 716.095C195.092 715.359 194.73 714.421 194.73 713.281C194.73 712.3 194.996 711.455 195.526 710.746C196.063 710.036 196.815 709.49 197.783 709.105C198.757 708.721 199.898 708.528 201.203 708.528C203.132 708.528 204.65 708.936 205.757 709.751C206.871 710.567 207.521 711.677 207.706 713.082ZM210.722 724V708.727H214.957V724H210.722ZM212.849 706.759C212.22 706.759 211.679 706.55 211.229 706.132C210.785 705.708 210.562 705.201 210.562 704.611C210.562 704.027 210.785 703.527 211.229 703.109C211.679 702.685 212.22 702.473 212.849 702.473C213.479 702.473 214.016 702.685 214.46 703.109C214.911 703.527 215.136 704.027 215.136 704.611C215.136 705.201 214.911 705.708 214.46 706.132C214.016 706.55 213.479 706.759 212.849 706.759ZM225.231 730.045C223.859 730.045 222.682 729.857 221.701 729.479C220.727 729.107 219.951 728.6 219.375 727.957C218.798 727.314 218.423 726.592 218.251 725.79L222.169 725.263C222.288 725.568 222.477 725.853 222.735 726.118C222.994 726.383 223.335 726.595 223.76 726.754C224.19 726.92 224.714 727.003 225.331 727.003C226.252 727.003 227.011 726.777 227.608 726.327C228.211 725.883 228.512 725.137 228.512 724.089V721.295H228.333C228.148 721.72 227.869 722.121 227.498 722.499C227.127 722.876 226.65 723.185 226.066 723.423C225.483 723.662 224.787 723.781 223.978 723.781C222.832 723.781 221.788 723.516 220.846 722.986C219.912 722.449 219.166 721.63 218.609 720.53C218.059 719.423 217.784 718.024 217.784 716.334C217.784 714.604 218.065 713.159 218.629 711.999C219.192 710.839 219.941 709.97 220.876 709.393C221.817 708.817 222.848 708.528 223.968 708.528C224.824 708.528 225.539 708.674 226.116 708.966C226.693 709.251 227.157 709.609 227.508 710.04C227.866 710.464 228.141 710.882 228.333 711.293H228.493V708.727H232.699V724.149C232.699 725.448 232.38 726.536 231.744 727.411C231.108 728.286 230.226 728.942 229.099 729.379C227.979 729.823 226.69 730.045 225.231 730.045ZM225.321 720.599C226.003 720.599 226.58 720.43 227.051 720.092C227.528 719.748 227.893 719.257 228.145 718.621C228.403 717.978 228.532 717.209 228.532 716.314C228.532 715.419 228.406 714.643 228.154 713.987C227.903 713.324 227.538 712.811 227.061 712.446C226.583 712.081 226.003 711.899 225.321 711.899C224.625 711.899 224.038 712.088 223.561 712.466C223.083 712.837 222.722 713.354 222.477 714.017C222.232 714.68 222.109 715.446 222.109 716.314C222.109 717.196 222.232 717.958 222.477 718.601C222.729 719.237 223.09 719.731 223.561 720.082C224.038 720.427 224.625 720.599 225.321 720.599ZM240.305 715.17V724H236.069V708.727H240.106V711.422H240.285C240.623 710.534 241.19 709.831 241.985 709.314C242.781 708.79 243.745 708.528 244.879 708.528C245.94 708.528 246.864 708.76 247.653 709.224C248.442 709.688 249.055 710.351 249.493 711.213C249.93 712.068 250.149 713.089 250.149 714.276V724H245.913V715.031C245.92 714.097 245.681 713.367 245.197 712.844C244.713 712.313 244.047 712.048 243.199 712.048C242.628 712.048 242.125 712.171 241.687 712.416C241.256 712.661 240.918 713.019 240.673 713.49C240.434 713.954 240.312 714.514 240.305 715.17Z" fill="#333333"/>
</g>
<g filter="url(#filter3_d_117_1971)">
<rect x="57" y="826" width="294" height="200" rx="36" fill="white" shape-rendering="crispEdges"/>
<g clip-path="url(#clip2_117_1971)">
<g clip-path="url(#clip3_117_1971)">
<mask id="mask0_117_1971" style="mask-type:luminance" maskUnits="userSpaceOnUse" x="184" y="879" width="41" height="41">
<path d="M184.133 879.334H224.133V919.334H184.133V879.334Z" fill="white"/>
</mask>
<g mask="url(#mask0_117_1971)">
<path d="M184.915 891.469H197.172H220.502" stroke="#333333" stroke-width="1.57625" stroke-miterlimit="10" stroke-linecap="round" stroke-linejoin="round"/>
<path d="M191.438 888.145C192.461 888.145 193.296 887.312 193.296 886.29C193.296 885.267 192.461 884.435 191.438 884.435C190.417 884.435 189.583 885.267 189.583 886.29C189.583 887.312 190.417 888.145 191.438 888.145Z" stroke="#333333" stroke-width="1.57625" stroke-miterlimit="10" stroke-linecap="round" stroke-linejoin="round"/>
<path d="M207.567 884.435H214.556C215.577 884.435 216.412 885.269 216.412 886.29C216.412 887.31 215.577 888.145 214.556 888.145H207.567C206.546 888.145 205.711 887.31 205.711 886.29C205.711 885.269 206.546 884.435 207.567 884.435Z" stroke="#333333" stroke-width="1.57625" stroke-miterlimit="10" stroke-linecap="round" stroke-linejoin="round"/>
<path d="M198.29 888.145C199.313 888.145 200.148 887.312 200.148 886.29C200.148 885.267 199.313 884.435 198.29 884.435C197.269 884.435 196.435 885.267 196.435 886.29C196.435 887.312 197.269 888.145 198.29 888.145Z" stroke="#333333" stroke-width="1.57625" stroke-miterlimit="10" stroke-linecap="round" stroke-linejoin="round"/>
<path d="M196.822 897.477L195.258 904.02" stroke="#333333" stroke-width="1.57625" stroke-miterlimit="10" stroke-linecap="round" stroke-linejoin="round"/>
<path d="M200.423 903.43L202.635 900.946C202.733 900.838 202.733 900.661 202.635 900.552L200.423 898.069" stroke="#333333" stroke-width="1.57625" stroke-miterlimit="10" stroke-linecap="round" stroke-linejoin="round"/>
<path d="M191.657 903.43L189.445 900.946C189.348 900.838 189.348 900.661 189.445 900.552L191.657 898.069" stroke="#333333" stroke-width="1.57625" stroke-miterlimit="10" stroke-linecap="round" stroke-linejoin="round"/>
<path d="M215.736 900.931C216.591 901.121 217.39 901.458 218.11 901.909L218.75 901.272C219.129 900.891 219.751 900.891 220.132 901.272L221.139 902.279C221.52 902.66 221.52 903.281 221.139 903.66L220.502 904.3C220.951 905.012 221.283 905.805 221.476 906.65H222.373C222.911 906.65 223.352 907.091 223.352 907.626V909.054C223.352 909.59 222.911 910.03 222.373 910.03H221.472C221.279 910.871 220.947 911.659 220.502 912.367L221.139 913.005C221.52 913.385 221.52 914.007 221.139 914.386L220.132 915.395C219.751 915.776 219.129 915.776 218.75 915.395L218.11 914.758C217.399 915.205 216.608 915.537 215.763 915.729V916.637C215.763 917.175 215.322 917.615 214.786 917.615H213.358C212.822 917.615 212.381 917.175 212.381 916.637V915.727C211.539 915.537 210.749 915.203 210.038 914.758L209.4 915.395C209.019 915.776 208.397 915.776 208.018 915.395L207.009 914.386C206.63 914.007 206.63 913.385 207.009 913.005L207.648 912.367C207.201 911.659 206.869 910.871 206.676 910.03H205.771C205.233 910.03 204.794 909.59 204.794 909.054V907.626C204.794 907.091 205.233 906.65 205.771 906.65H206.674C206.865 905.814 207.192 905.03 207.633 904.324L206.991 903.68C206.61 903.301 206.61 902.679 206.991 902.299L207.998 901.292C208.379 900.911 209.002 900.911 209.38 901.292L210.016 901.925C210.725 901.475 211.513 901.141 212.354 900.944V900.043C212.354 899.505 212.793 899.065 213.331 899.065H214.757C215.295 899.065 215.736 899.505 215.736 900.043V900.931Z" stroke="#333333" stroke-width="1.57625" stroke-miterlimit="10" stroke-linecap="round" stroke-linejoin="round"/>
<path d="M214.073 904.315C216.297 904.315 218.099 906.117 218.099 908.341C218.099 910.564 216.297 912.365 214.073 912.365C211.848 912.365 210.045 910.564 210.045 908.341C210.045 906.117 211.848 904.315 214.073 904.315Z" stroke="#333333" stroke-width="1.57625" stroke-miterlimit="10" stroke-linecap="round" stroke-linejoin="round"/>
<path d="M192.448 910.029H187.824C186.226 910.029 184.915 908.465 184.915 906.554V884.527C184.915 882.615 186.223 881.052 187.824 881.052H191.195H217.592C219.193 881.052 220.502 882.617 220.502 884.527V901.641M205.771 910.029H199.431" stroke="#333333" stroke-width="1.57625" stroke-miterlimit="10" stroke-linecap="round" stroke-linejoin="round"/>
<path d="M195.947 910.029H195.963" stroke="#333333" stroke-width="1.57625" stroke-miterlimit="10" stroke-linecap="round" stroke-linejoin="round"/>
</g>
</g>
</g>
<path d="M157.057 964H149.838V943.636H157.117C159.165 943.636 160.928 944.044 162.406 944.859C163.885 945.668 165.021 946.831 165.817 948.349C166.619 949.867 167.02 951.684 167.02 953.798C167.02 955.92 166.619 957.742 165.817 959.267C165.021 960.792 163.878 961.962 162.387 962.777C160.902 963.592 159.125 964 157.057 964ZM154.144 960.311H156.878C158.151 960.311 159.221 960.086 160.09 959.635C160.965 959.178 161.621 958.472 162.058 957.517C162.503 956.556 162.725 955.316 162.725 953.798C162.725 952.294 162.503 951.064 162.058 950.109C161.621 949.155 160.968 948.452 160.1 948.001C159.231 947.551 158.161 947.325 156.888 947.325H154.144V960.311ZM177.09 964.298C175.519 964.298 174.167 963.98 173.033 963.344C171.906 962.701 171.038 961.793 170.428 960.619C169.818 959.439 169.513 958.044 169.513 956.433C169.513 954.862 169.818 953.483 170.428 952.297C171.038 951.11 171.896 950.186 173.003 949.523C174.117 948.86 175.423 948.528 176.921 948.528C177.929 948.528 178.867 948.691 179.735 949.016C180.61 949.334 181.372 949.814 182.022 950.457C182.678 951.1 183.189 951.909 183.553 952.884C183.918 953.851 184.1 954.985 184.1 956.284V957.447H171.204V954.822H180.113C180.113 954.213 179.98 953.672 179.715 953.202C179.45 952.731 179.082 952.363 178.611 952.098C178.147 951.826 177.607 951.69 176.991 951.69C176.348 951.69 175.778 951.839 175.28 952.138C174.79 952.429 174.405 952.824 174.127 953.321C173.849 953.812 173.706 954.358 173.699 954.962V957.457C173.699 958.213 173.839 958.866 174.117 959.416C174.402 959.966 174.803 960.391 175.32 960.689C175.837 960.987 176.45 961.136 177.16 961.136C177.63 961.136 178.061 961.07 178.452 960.938C178.843 960.805 179.178 960.606 179.456 960.341C179.735 960.076 179.947 959.751 180.093 959.366L184.01 959.625C183.812 960.566 183.404 961.388 182.787 962.091C182.178 962.787 181.389 963.33 180.421 963.722C179.46 964.106 178.349 964.298 177.09 964.298ZM200.693 948.727L195.353 964H190.58L185.241 948.727H189.715L192.887 959.655H193.046L196.208 948.727H200.693ZM209.328 964.298C207.757 964.298 206.405 963.98 205.271 963.344C204.145 962.701 203.276 961.793 202.666 960.619C202.057 959.439 201.752 958.044 201.752 956.433C201.752 954.862 202.057 953.483 202.666 952.297C203.276 951.11 204.135 950.186 205.242 949.523C206.355 948.86 207.661 948.528 209.159 948.528C210.167 948.528 211.105 948.691 211.973 949.016C212.848 949.334 213.61 949.814 214.26 950.457C214.916 951.1 215.427 951.909 215.791 952.884C216.156 953.851 216.338 954.985 216.338 956.284V957.447H203.442V954.822H212.351C212.351 954.213 212.218 953.672 211.953 953.202C211.688 952.731 211.32 952.363 210.85 952.098C210.386 951.826 209.845 951.69 209.229 951.69C208.586 951.69 208.016 951.839 207.519 952.138C207.028 952.429 206.644 952.824 206.365 953.321C206.087 953.812 205.944 954.358 205.938 954.962V957.457C205.938 958.213 206.077 958.866 206.355 959.416C206.64 959.966 207.041 960.391 207.558 960.689C208.075 960.987 208.689 961.136 209.398 961.136C209.869 961.136 210.299 961.07 210.691 960.938C211.082 960.805 211.416 960.606 211.695 960.341C211.973 960.076 212.185 959.751 212.331 959.366L216.249 959.625C216.05 960.566 215.642 961.388 215.026 962.091C214.416 962.787 213.627 963.33 212.659 963.722C211.698 964.106 210.588 964.298 209.328 964.298ZM223.338 943.636V964H219.102V943.636H223.338ZM233.632 964.298C232.087 964.298 230.752 963.97 229.625 963.314C228.505 962.651 227.64 961.73 227.03 960.55C226.42 959.363 226.115 957.988 226.115 956.423C226.115 954.846 226.42 953.467 227.03 952.287C227.64 951.1 228.505 950.179 229.625 949.523C230.752 948.86 232.087 948.528 233.632 948.528C235.176 948.528 236.509 948.86 237.629 949.523C238.756 950.179 239.624 951.1 240.234 952.287C240.844 953.467 241.149 954.846 241.149 956.423C241.149 957.988 240.844 959.363 240.234 960.55C239.624 961.73 238.756 962.651 237.629 963.314C236.509 963.97 235.176 964.298 233.632 964.298ZM233.652 961.017C234.354 961.017 234.941 960.818 235.412 960.42C235.882 960.016 236.237 959.466 236.476 958.77C236.721 958.074 236.844 957.282 236.844 956.393C236.844 955.505 236.721 954.713 236.476 954.017C236.237 953.321 235.882 952.771 235.412 952.366C234.941 951.962 234.354 951.76 233.652 951.76C232.943 951.76 232.346 951.962 231.862 952.366C231.385 952.771 231.023 953.321 230.778 954.017C230.54 954.713 230.42 955.505 230.42 956.393C230.42 957.282 230.54 958.074 230.778 958.77C231.023 959.466 231.385 960.016 231.862 960.42C232.346 960.818 232.943 961.017 233.652 961.017ZM243.903 969.727V948.727H248.079V951.293H248.268C248.454 950.882 248.722 950.464 249.074 950.04C249.432 949.609 249.896 949.251 250.466 948.966C251.042 948.674 251.758 948.528 252.613 948.528C253.727 948.528 254.755 948.82 255.696 949.403C256.637 949.98 257.39 950.852 257.953 952.018C258.516 953.179 258.798 954.634 258.798 956.384C258.798 958.087 258.523 959.526 257.973 960.699C257.429 961.866 256.687 962.75 255.746 963.354C254.811 963.95 253.764 964.249 252.604 964.249C251.782 964.249 251.082 964.113 250.506 963.841C249.935 963.569 249.468 963.228 249.104 962.817C248.739 962.399 248.461 961.978 248.268 961.554H248.139V969.727H243.903ZM248.05 956.364C248.05 957.272 248.175 958.064 248.427 958.74C248.679 959.416 249.044 959.943 249.521 960.321C249.998 960.692 250.578 960.878 251.261 960.878C251.951 960.878 252.534 960.689 253.011 960.311C253.488 959.927 253.85 959.396 254.095 958.72C254.347 958.037 254.473 957.252 254.473 956.364C254.473 955.482 254.35 954.706 254.105 954.037C253.86 953.367 253.498 952.844 253.021 952.466C252.544 952.088 251.957 951.899 251.261 951.899C250.572 951.899 249.988 952.081 249.511 952.446C249.041 952.811 248.679 953.328 248.427 953.997C248.175 954.667 248.05 955.455 248.05 956.364Z" fill="#333333"/>
</g>
<g filter="url(#filter4_d_117_1971)">
<rect x="57" y="1066" width="294" height="200" rx="36" fill="white" shape-rendering="crispEdges"/>
<g clip-path="url(#clip4_117_1971)">
<mask id="mask1_117_1971" style="mask-type:luminance" maskUnits="userSpaceOnUse" x="184" y="1119" width="40" height="40">
<path d="M184 1119H224V1159H184V1119Z" fill="white"/>
</mask>
<g mask="url(#mask1_117_1971)">
<path d="M195.797 1136.79L186.413 1135.88L193.983 1128.31C196.476 1125.82 200.247 1125.35 203.219 1126.91" stroke="#333333" stroke-width="2.34375" stroke-miterlimit="22.926" stroke-linecap="round" stroke-linejoin="round"/>
<path d="M206.235 1147.36L207.122 1156.59L214.693 1149.02C217.275 1146.44 217.683 1142.48 215.916 1139.47" stroke="#333333" stroke-width="2.34375" stroke-miterlimit="22.926" stroke-linecap="round" stroke-linejoin="round"/>
<path d="M215.779 1139.39C215.214 1140.04 214.618 1140.69 213.99 1141.31C210.832 1144.47 207.312 1146.84 203.836 1148.32C202.818 1148.76 201.698 1148.54 200.916 1147.76L195.233 1142.08C194.45 1141.29 194.234 1140.17 194.669 1139.16C196.154 1135.68 198.521 1132.16 201.679 1129C208.304 1122.38 216.526 1119.23 222.581 1120.41C223.65 1125.89 221.172 1133.15 215.779 1139.39Z" stroke="#333333" stroke-width="2.34375" stroke-miterlimit="22.926" stroke-linecap="round" stroke-linejoin="round"/>
<path d="M212.644 1121.7L221.012 1130.07" stroke="#333333" stroke-width="2.34375" stroke-miterlimit="22.926" stroke-linecap="round" stroke-linejoin="round"/>
<path d="M197.056 1136.39L206.643 1145.98" stroke="#333333" stroke-width="2.34375" stroke-miterlimit="22.926" stroke-linecap="round" stroke-linejoin="round"/>
<path d="M211.713 1131.28C212.75 1132.32 212.75 1134 211.713 1135.03C210.677 1136.07 208.996 1136.07 207.96 1135.03C206.923 1134 206.923 1132.32 207.96 1131.28C208.996 1130.24 210.677 1130.24 211.713 1131.28Z" stroke="#333333" stroke-width="2.34375" stroke-miterlimit="22.926" stroke-linecap="round" stroke-linejoin="round"/>
<path d="M194.622 1148.38L185.175 1157.83" stroke="#333333" stroke-width="2.34375" stroke-miterlimit="22.926" stroke-linecap="round" stroke-linejoin="round"/>
<path d="M190.868 1144.63L187.677 1147.82" stroke="#333333" stroke-width="2.34375" stroke-miterlimit="22.926" stroke-linecap="round" stroke-linejoin="round"/>
<path d="M198.376 1152.14L195.185 1155.33" stroke="#333333" stroke-width="2.34375" stroke-miterlimit="22.926" stroke-linecap="round" stroke-linejoin="round"/>
</g>
</g>
<path d="M164.754 1204H157.536V1183.64H164.814C166.862 1183.64 168.625 1184.04 170.104 1184.86C171.582 1185.67 172.719 1186.83 173.514 1188.35C174.316 1189.87 174.717 1191.68 174.717 1193.8C174.717 1195.92 174.316 1197.74 173.514 1199.27C172.719 1200.79 171.575 1201.96 170.084 1202.78C168.599 1203.59 166.822 1204 164.754 1204ZM161.841 1200.31H164.575C165.848 1200.31 166.919 1200.09 167.787 1199.63C168.662 1199.18 169.318 1198.47 169.756 1197.52C170.2 1196.56 170.422 1195.32 170.422 1193.8C170.422 1192.29 170.2 1191.06 169.756 1190.11C169.318 1189.15 168.665 1188.45 167.797 1188C166.929 1187.55 165.858 1187.33 164.585 1187.33H161.841V1200.31ZM184.787 1204.3C183.216 1204.3 181.864 1203.98 180.73 1203.34C179.604 1202.7 178.735 1201.79 178.125 1200.62C177.516 1199.44 177.211 1198.04 177.211 1196.43C177.211 1194.86 177.516 1193.48 178.125 1192.3C178.735 1191.11 179.594 1190.19 180.701 1189.52C181.814 1188.86 183.12 1188.53 184.618 1188.53C185.626 1188.53 186.564 1188.69 187.432 1189.02C188.307 1189.33 189.069 1189.81 189.719 1190.46C190.375 1191.1 190.886 1191.91 191.25 1192.88C191.615 1193.85 191.797 1194.98 191.797 1196.28V1197.45H178.901V1194.82H187.81C187.81 1194.21 187.677 1193.67 187.412 1193.2C187.147 1192.73 186.779 1192.36 186.309 1192.1C185.845 1191.83 185.304 1191.69 184.688 1191.69C184.045 1191.69 183.475 1191.84 182.978 1192.14C182.487 1192.43 182.103 1192.82 181.824 1193.32C181.546 1193.81 181.403 1194.36 181.397 1194.96V1197.46C181.397 1198.21 181.536 1198.87 181.814 1199.42C182.099 1199.97 182.5 1200.39 183.017 1200.69C183.534 1200.99 184.148 1201.14 184.857 1201.14C185.328 1201.14 185.758 1201.07 186.15 1200.94C186.541 1200.8 186.875 1200.61 187.154 1200.34C187.432 1200.08 187.644 1199.75 187.79 1199.37L191.708 1199.62C191.509 1200.57 191.101 1201.39 190.485 1202.09C189.875 1202.79 189.086 1203.33 188.118 1203.72C187.157 1204.11 186.047 1204.3 184.787 1204.3ZM198.797 1183.64V1204H194.561V1183.64H198.797ZM202.19 1204V1188.73H206.426V1204H202.19ZM204.318 1186.76C203.688 1186.76 203.148 1186.55 202.697 1186.13C202.253 1185.71 202.031 1185.2 202.031 1184.61C202.031 1184.03 202.253 1183.53 202.697 1183.11C203.148 1182.69 203.688 1182.47 204.318 1182.47C204.948 1182.47 205.485 1182.69 205.929 1183.11C206.38 1183.53 206.605 1184.03 206.605 1184.61C206.605 1185.2 206.38 1185.71 205.929 1186.13C205.485 1186.55 204.948 1186.76 204.318 1186.76ZM224.058 1188.73L218.718 1204H213.946L208.606 1188.73H213.081L216.252 1199.65H216.412L219.574 1188.73H224.058ZM232.694 1204.3C231.123 1204.3 229.77 1203.98 228.637 1203.34C227.51 1202.7 226.641 1201.79 226.032 1200.62C225.422 1199.44 225.117 1198.04 225.117 1196.43C225.117 1194.86 225.422 1193.48 226.032 1192.3C226.641 1191.11 227.5 1190.19 228.607 1189.52C229.721 1188.86 231.026 1188.53 232.525 1188.53C233.532 1188.53 234.47 1188.69 235.338 1189.02C236.213 1189.33 236.976 1189.81 237.625 1190.46C238.282 1191.1 238.792 1191.91 239.157 1192.88C239.521 1193.85 239.703 1194.98 239.703 1196.28V1197.45H226.807V1194.82H235.716C235.716 1194.21 235.584 1193.67 235.319 1193.2C235.053 1192.73 234.685 1192.36 234.215 1192.1C233.751 1191.83 233.211 1191.69 232.594 1191.69C231.951 1191.69 231.381 1191.84 230.884 1192.14C230.393 1192.43 230.009 1192.82 229.73 1193.32C229.452 1193.81 229.31 1194.36 229.303 1194.96V1197.46C229.303 1198.21 229.442 1198.87 229.721 1199.42C230.006 1199.97 230.407 1200.39 230.924 1200.69C231.441 1200.99 232.054 1201.14 232.763 1201.14C233.234 1201.14 233.665 1201.07 234.056 1200.94C234.447 1200.8 234.782 1200.61 235.06 1200.34C235.338 1200.08 235.551 1199.75 235.696 1199.37L239.614 1199.62C239.415 1200.57 239.007 1201.39 238.391 1202.09C237.781 1202.79 236.992 1203.33 236.025 1203.72C235.063 1204.11 233.953 1204.3 232.694 1204.3ZM242.468 1204V1188.73H246.574V1191.39H246.733C247.012 1190.44 247.479 1189.73 248.135 1189.24C248.792 1188.75 249.547 1188.51 250.402 1188.51C250.614 1188.51 250.843 1188.52 251.088 1188.55C251.334 1188.57 251.549 1188.61 251.735 1188.66V1192.42C251.536 1192.36 251.261 1192.3 250.909 1192.26C250.558 1192.21 250.237 1192.19 249.945 1192.19C249.322 1192.19 248.765 1192.32 248.275 1192.6C247.791 1192.86 247.406 1193.23 247.121 1193.71C246.843 1194.19 246.703 1194.74 246.703 1195.36V1204H242.468Z" fill="#333333"/>
</g>
<defs>
<filter id="filter0_d_117_1971" x="47" y="98" width="314" height="220" filterUnits="userSpaceOnUse" color-interpolation-filters="sRGB">
<feFlood flood-opacity="0" result="BackgroundImageFix"/>
<feColorMatrix in="SourceAlpha" type="matrix" values="0 0 0 0 0 0 0 0 0 0 0 0 0 0 0 0 0 0 127 0" result="hardAlpha"/>
<feOffset dy="2"/>
<feGaussianBlur stdDeviation="5"/>
<feComposite in2="hardAlpha" operator="out"/>
<feColorMatrix type="matrix" values="0 0 0 0 1 0 0 0 0 1 0 0 0 0 1 0 0 0 0.2 0"/>
<feBlend mode="normal" in2="BackgroundImageFix" result="effect1_dropShadow_117_1971"/>
<feBlend mode="normal" in="SourceGraphic" in2="effect1_dropShadow_117_1971" result="shape"/>
</filter>
<filter id="filter1_d_117_1971" x="47" y="338" width="314" height="220" filterUnits="userSpaceOnUse" color-interpolation-filters="sRGB">
<feFlood flood-opacity="0" result="BackgroundImageFix"/>
<feColorMatrix in="SourceAlpha" type="matrix" values="0 0 0 0 0 0 0 0 0 0 0 0 0 0 0 0 0 0 127 0" result="hardAlpha"/>
<feOffset dy="2"/>
<feGaussianBlur stdDeviation="5"/>
<feComposite in2="hardAlpha" operator="out"/>
<feColorMatrix type="matrix" values="0 0 0 0 1 0 0 0 0 1 0 0 0 0 1 0 0 0 0.2 0"/>
<feBlend mode="normal" in2="BackgroundImageFix" result="effect1_dropShadow_117_1971"/>
<feBlend mode="normal" in="SourceGraphic" in2="effect1_dropShadow_117_1971" result="shape"/>
</filter>
<filter id="filter2_d_117_1971" x="47" y="578" width="314" height="220" filterUnits="userSpaceOnUse" color-interpolation-filters="sRGB">
<feFlood flood-opacity="0" result="BackgroundImageFix"/>
<feColorMatrix in="SourceAlpha" type="matrix" values="0 0 0 0 0 0 0 0 0 0 0 0 0 0 0 0 0 0 127 0" result="hardAlpha"/>
<feOffset dy="2"/>
<feGaussianBlur stdDeviation="5"/>
<feComposite in2="hardAlpha" operator="out"/>
<feColorMatrix type="matrix" values="0 0 0 0 1 0 0 0 0 1 0 0 0 0 1 0 0 0 0.2 0"/>
<feBlend mode="normal" in2="BackgroundImageFix" result="effect1_dropShadow_117_1971"/>
<feBlend mode="normal" in="SourceGraphic" in2="effect1_dropShadow_117_1971" result="shape"/>
</filter>
<filter id="filter3_d_117_1971" x="47" y="818" width="314" height="220" filterUnits="userSpaceOnUse" color-interpolation-filters="sRGB">
<feFlood flood-opacity="0" result="BackgroundImageFix"/>
<feColorMatrix in="SourceAlpha" type="matrix" values="0 0 0 0 0 0 0 0 0 0 0 0 0 0 0 0 0 0 127 0" result="hardAlpha"/>
<feOffset dy="2"/>
<feGaussianBlur stdDeviation="5"/>
<feComposite in2="hardAlpha" operator="out"/>
<feColorMatrix type="matrix" values="0 0 0 0 1 0 0 0 0 1 0 0 0 0 1 0 0 0 0.2 0"/>
<feBlend mode="normal" in2="BackgroundImageFix" result="effect1_dropShadow_117_1971"/>
<feBlend mode="normal" in="SourceGraphic" in2="effect1_dropShadow_117_1971" result="shape"/>
</filter>
<filter id="filter4_d_117_1971" x="47" y="1058" width="314" height="220" filterUnits="userSpaceOnUse" color-interpolation-filters="sRGB">
<feFlood flood-opacity="0" result="BackgroundImageFix"/>
<feColorMatrix in="SourceAlpha" type="matrix" values="0 0 0 0 0 0 0 0 0 0 0 0 0 0 0 0 0 0 127 0" result="hardAlpha"/>
<feOffset dy="2"/>
<feGaussianBlur stdDeviation="5"/>
<feComposite in2="hardAlpha" operator="out"/>
<feColorMatrix type="matrix" values="0 0 0 0 1 0 0 0 0 1 0 0 0 0 1 0 0 0 0.2 0"/>
<feBlend mode="normal" in2="BackgroundImageFix" result="effect1_dropShadow_117_1971"/>
<feBlend mode="normal" in="SourceGraphic" in2="effect1_dropShadow_117_1971" result="shape"/>
</filter>
<clipPath id="clip0_117_1971">
<rect width="40" height="40" fill="white" transform="translate(184 159)"/>
</clipPath>
<clipPath id="clip1_117_1971">
<rect width="40" height="40" fill="white" transform="translate(184 639)"/>
</clipPath>
<clipPath id="clip2_117_1971">
<rect width="40" height="40" fill="white" transform="translate(184 879)"/>
</clipPath>
<clipPath id="clip3_117_1971">
<rect width="40" height="40" fill="white" transform="translate(184.133 879.334)"/>
</clipPath>
<clipPath id="clip4_117_1971">
<rect width="40" height="40" fill="white" transform="translate(184 1119)"/>
</clipPath>
</defs>
</svg>
