<svg width="1320" height="391" viewBox="0 0 1320 391" fill="none" xmlns="http://www.w3.org/2000/svg">
<path d="M12.8409 31H2.52841V1.90909H12.9261C15.8523 1.90909 18.3712 2.49148 20.483 3.65625C22.5947 4.81155 24.2188 6.47348 25.3551 8.64205C26.5009 10.8106 27.0739 13.4053 27.0739 16.4261C27.0739 19.4564 26.5009 22.0606 25.3551 24.2386C24.2188 26.4167 22.5852 28.0881 20.4545 29.2528C18.3333 30.4176 15.7955 31 12.8409 31ZM8.67898 25.7301H12.5852C14.4034 25.7301 15.9328 25.4081 17.1733 24.7642C18.4233 24.1108 19.3608 23.1023 19.9858 21.7386C20.6203 20.3655 20.9375 18.5947 20.9375 16.4261C20.9375 14.2765 20.6203 12.5199 19.9858 11.1562C19.3608 9.79261 18.428 8.78883 17.1875 8.14489C15.947 7.50095 14.4176 7.17898 12.5994 7.17898H8.67898V25.7301ZM41.8595 31.4261C39.6152 31.4261 37.6834 30.9716 36.0641 30.0625C34.4542 29.1439 33.2137 27.8466 32.3425 26.1705C31.4713 24.4848 31.0357 22.4915 31.0357 20.1903C31.0357 17.946 31.4713 15.9763 32.3425 14.2812C33.2137 12.5862 34.44 11.2652 36.0214 10.3182C37.6124 9.37121 39.4779 8.89773 41.618 8.89773C43.0574 8.89773 44.3974 9.12973 45.6379 9.59375C46.8879 10.0483 47.9769 10.7348 48.905 11.6534C49.8425 12.572 50.5716 13.7273 51.0925 15.1193C51.6133 16.5019 51.8737 18.1212 51.8737 19.9773V21.6392H33.4504V17.8892H46.1777C46.1777 17.018 45.9883 16.2462 45.6095 15.5739C45.2307 14.9015 44.7052 14.3759 44.0328 13.9972C43.3699 13.6089 42.5982 13.4148 41.7175 13.4148C40.7989 13.4148 39.9845 13.6278 39.2743 14.054C38.5735 14.4706 38.0243 15.0341 37.6266 15.7443C37.2288 16.4451 37.0252 17.2263 37.0158 18.0881V21.6534C37.0158 22.733 37.2146 23.6657 37.6124 24.4517C38.0196 25.2377 38.5925 25.8438 39.3311 26.2699C40.0697 26.696 40.9457 26.9091 41.9589 26.9091C42.6313 26.9091 43.2468 26.8144 43.8055 26.625C44.3643 26.4356 44.8425 26.1515 45.2402 25.7727C45.6379 25.3939 45.941 24.9299 46.1493 24.3807L51.7459 24.75C51.4618 26.0947 50.8794 27.2689 49.9987 28.2727C49.1275 29.267 48.0006 30.0436 46.618 30.6023C45.2449 31.1515 43.6588 31.4261 41.8595 31.4261ZM74.376 15.4034L68.8362 15.7443C68.7415 15.2708 68.5379 14.8447 68.2254 14.4659C67.9129 14.0777 67.501 13.7699 66.9896 13.5426C66.4877 13.3059 65.8864 13.1875 65.1857 13.1875C64.2482 13.1875 63.4574 13.3864 62.8135 13.7841C62.1696 14.1723 61.8476 14.6932 61.8476 15.3466C61.8476 15.8674 62.0559 16.3078 62.4726 16.6676C62.8893 17.0275 63.6042 17.3163 64.6175 17.5341L68.5663 18.3295C70.6875 18.7652 72.269 19.4659 73.3107 20.4318C74.3523 21.3977 74.8732 22.6667 74.8732 24.2386C74.8732 25.6686 74.4518 26.9233 73.6089 28.0028C72.7756 29.0824 71.6298 29.9252 70.1714 30.5312C68.7226 31.1278 67.0512 31.4261 65.1572 31.4261C62.269 31.4261 59.9678 30.8248 58.2538 29.6222C56.5493 28.41 55.5502 26.7623 55.2567 24.679L61.2084 24.3665C61.3883 25.2472 61.8239 25.9195 62.5152 26.3835C63.2065 26.8381 64.0919 27.0653 65.1714 27.0653C66.2321 27.0653 67.0843 26.8617 67.7283 26.4545C68.3817 26.0379 68.7131 25.5028 68.7226 24.8494C68.7131 24.3002 68.4811 23.8504 68.0266 23.5C67.572 23.1402 66.8713 22.8655 65.9243 22.6761L62.1459 21.9233C60.0152 21.4972 58.429 20.7585 57.3874 19.7074C56.3552 18.6562 55.8391 17.3163 55.8391 15.6875C55.8391 14.286 56.2178 13.0786 56.9754 12.0653C57.7425 11.0521 58.8173 10.2708 60.1999 9.72159C61.5919 9.17235 63.2207 8.89773 65.0862 8.89773C67.8419 8.89773 70.0105 9.48011 71.5919 10.6449C73.1828 11.8097 74.1108 13.3958 74.376 15.4034ZM79.0835 31V9.18182H85.1347V31H79.0835ZM82.1233 6.36932C81.2237 6.36932 80.4519 6.07102 79.808 5.47443C79.1735 4.86837 78.8562 4.14394 78.8562 3.30114C78.8562 2.4678 79.1735 1.75284 79.808 1.15625C80.4519 0.550188 81.2237 0.247158 82.1233 0.247158C83.0229 0.247158 83.79 0.550188 84.4244 1.15625C85.0684 1.75284 85.3903 2.4678 85.3903 3.30114C85.3903 4.14394 85.0684 4.86837 84.4244 5.47443C83.79 6.07102 83.0229 6.36932 82.1233 6.36932ZM100.212 39.6364C98.2513 39.6364 96.5704 39.3665 95.1689 38.8267C93.7768 38.2964 92.6689 37.572 91.845 36.6534C91.0212 35.7348 90.4861 34.7027 90.2399 33.5568L95.8365 32.804C96.007 33.2396 96.2768 33.6468 96.6462 34.0256C97.0155 34.4044 97.5032 34.7074 98.1092 34.9347C98.7248 35.1714 99.4729 35.2898 100.354 35.2898C101.67 35.2898 102.754 34.9678 103.606 34.3239C104.468 33.6894 104.899 32.6241 104.899 31.1278V27.1364H104.643C104.378 27.7424 103.98 28.3153 103.45 28.8551C102.92 29.3949 102.238 29.8352 101.405 30.1761C100.571 30.517 99.577 30.6875 98.4217 30.6875C96.7835 30.6875 95.292 30.3087 93.9473 29.5511C92.6121 28.7841 91.5467 27.6146 90.7513 26.0426C89.9653 24.4612 89.5723 22.4631 89.5723 20.0483C89.5723 17.5767 89.9748 15.5123 90.7797 13.8551C91.5846 12.1979 92.6547 10.9574 93.9899 10.1335C95.3346 9.30966 96.8071 8.89773 98.4075 8.89773C99.6291 8.89773 100.652 9.10606 101.476 9.52273C102.3 9.92992 102.962 10.4413 103.464 11.0568C103.976 11.6629 104.369 12.2595 104.643 12.8466H104.871V9.18182H110.879V31.2131C110.879 33.0691 110.425 34.6222 109.515 35.8722C108.606 37.1222 107.347 38.0597 105.737 38.6847C104.137 39.3191 102.295 39.6364 100.212 39.6364ZM100.339 26.142C101.315 26.142 102.139 25.9006 102.811 25.4176C103.493 24.9252 104.014 24.2244 104.373 23.3153C104.743 22.3968 104.927 21.2983 104.927 20.0199C104.927 18.7415 104.747 17.6335 104.388 16.696C104.028 15.7491 103.507 15.0152 102.825 14.4943C102.143 13.9735 101.315 13.7131 100.339 13.7131C99.345 13.7131 98.507 13.983 97.8251 14.5227C97.1433 15.053 96.6272 15.7917 96.2768 16.7386C95.9265 17.6856 95.7513 18.7794 95.7513 20.0199C95.7513 21.2794 95.9265 22.3684 96.2768 23.2869C96.6367 24.196 97.1528 24.9015 97.8251 25.4034C98.507 25.8958 99.345 26.142 100.339 26.142ZM122.146 18.3864V31H116.094V9.18182H121.862V13.0312H122.117C122.6 11.7623 123.41 10.7585 124.546 10.0199C125.683 9.27178 127.06 8.89773 128.68 8.89773C130.195 8.89773 131.516 9.22917 132.643 9.89205C133.77 10.5549 134.646 11.5019 135.271 12.733C135.896 13.9545 136.208 15.4129 136.208 17.108V31H130.157V18.1875C130.166 16.8523 129.826 15.8106 129.134 15.0625C128.443 14.3049 127.491 13.9261 126.279 13.9261C125.465 13.9261 124.745 14.1013 124.12 14.4517C123.504 14.8021 123.022 15.3134 122.671 15.9858C122.33 16.6487 122.155 17.4489 122.146 18.3864ZM151.149 31V1.90909H162.626C164.832 1.90909 166.712 2.33049 168.265 3.1733C169.818 4.00663 171.002 5.16667 171.816 6.65341C172.64 8.13068 173.052 9.83523 173.052 11.767C173.052 13.6989 172.635 15.4034 171.802 16.8807C170.969 18.358 169.761 19.5085 168.18 20.3324C166.608 21.1562 164.705 21.5682 162.47 21.5682H155.154V16.6392H161.475C162.659 16.6392 163.635 16.4356 164.402 16.0284C165.178 15.6117 165.756 15.0388 166.135 14.3097C166.523 13.571 166.717 12.7235 166.717 11.767C166.717 10.8011 166.523 9.95833 166.135 9.23864C165.756 8.50947 165.178 7.94602 164.402 7.5483C163.625 7.1411 162.64 6.9375 161.447 6.9375H157.299V31H151.149ZM177.334 31V9.18182H183.2V12.9886H183.427C183.825 11.6345 184.493 10.6117 185.43 9.92045C186.368 9.2197 187.447 8.86932 188.669 8.86932C188.972 8.86932 189.298 8.88826 189.649 8.92614C189.999 8.96402 190.307 9.0161 190.572 9.08239V14.4517C190.288 14.3665 189.895 14.2907 189.393 14.2244C188.891 14.1581 188.432 14.125 188.015 14.125C187.125 14.125 186.33 14.3191 185.629 14.7074C184.938 15.0862 184.388 15.6165 183.981 16.2983C183.584 16.9801 183.385 17.7661 183.385 18.6562V31H177.334ZM202.943 31.4261C200.737 31.4261 198.828 30.9574 197.219 30.0199C195.618 29.0729 194.382 27.7566 193.511 26.071C192.64 24.3759 192.204 22.411 192.204 20.1761C192.204 17.9223 192.64 15.9527 193.511 14.267C194.382 12.572 195.618 11.2557 197.219 10.3182C198.828 9.37121 200.737 8.89773 202.943 8.89773C205.149 8.89773 207.053 9.37121 208.653 10.3182C210.263 11.2557 211.504 12.572 212.375 14.267C213.246 15.9527 213.682 17.9223 213.682 20.1761C213.682 22.411 213.246 24.3759 212.375 26.071C211.504 27.7566 210.263 29.0729 208.653 30.0199C207.053 30.9574 205.149 31.4261 202.943 31.4261ZM202.971 26.7386C203.975 26.7386 204.813 26.4545 205.486 25.8864C206.158 25.3087 206.665 24.5227 207.006 23.5284C207.356 22.5341 207.531 21.4025 207.531 20.1335C207.531 18.8646 207.356 17.733 207.006 16.7386C206.665 15.7443 206.158 14.9583 205.486 14.3807C204.813 13.803 203.975 13.5142 202.971 13.5142C201.958 13.5142 201.106 13.803 200.415 14.3807C199.733 14.9583 199.217 15.7443 198.866 16.7386C198.525 17.733 198.355 18.8646 198.355 20.1335C198.355 21.4025 198.525 22.5341 198.866 23.5284C199.217 24.5227 199.733 25.3087 200.415 25.8864C201.106 26.4545 201.958 26.7386 202.971 26.7386ZM227.874 31.4261C225.639 31.4261 223.717 30.9527 222.107 30.0057C220.507 29.0492 219.276 27.7235 218.414 26.0284C217.562 24.3333 217.136 22.3826 217.136 20.1761C217.136 17.9413 217.567 15.9811 218.428 14.2955C219.299 12.6004 220.535 11.2794 222.136 10.3324C223.736 9.37595 225.639 8.89773 227.846 8.89773C229.749 8.89773 231.416 9.24337 232.846 9.93466C234.276 10.6259 235.407 11.5966 236.241 12.8466C237.074 14.0966 237.533 15.5644 237.619 17.25H231.908C231.747 16.161 231.321 15.285 230.63 14.6222C229.948 13.9498 229.053 13.6136 227.945 13.6136C227.008 13.6136 226.189 13.8693 225.488 14.3807C224.797 14.8826 224.257 15.6165 223.869 16.5824C223.48 17.5483 223.286 18.7178 223.286 20.0909C223.286 21.483 223.476 22.6667 223.854 23.642C224.243 24.6174 224.787 25.3608 225.488 25.8722C226.189 26.3835 227.008 26.6392 227.945 26.6392C228.637 26.6392 229.257 26.4972 229.806 26.2131C230.365 25.929 230.824 25.517 231.184 24.9773C231.553 24.428 231.795 23.7699 231.908 23.0028H237.619C237.524 24.6695 237.069 26.1373 236.255 27.4062C235.45 28.6657 234.337 29.6506 232.917 30.3608C231.496 31.071 229.816 31.4261 227.874 31.4261ZM251.836 31.4261C249.592 31.4261 247.66 30.9716 246.041 30.0625C244.431 29.1439 243.19 27.8466 242.319 26.1705C241.448 24.4848 241.012 22.4915 241.012 20.1903C241.012 17.946 241.448 15.9763 242.319 14.2812C243.19 12.5862 244.417 11.2652 245.998 10.3182C247.589 9.37121 249.454 8.89773 251.595 8.89773C253.034 8.89773 254.374 9.12973 255.614 9.59375C256.864 10.0483 257.953 10.7348 258.882 11.6534C259.819 12.572 260.548 13.7273 261.069 15.1193C261.59 16.5019 261.85 18.1212 261.85 19.9773V21.6392H243.427V17.8892H256.154C256.154 17.018 255.965 16.2462 255.586 15.5739C255.207 14.9015 254.682 14.3759 254.009 13.9972C253.346 13.6089 252.575 13.4148 251.694 13.4148C250.775 13.4148 249.961 13.6278 249.251 14.054C248.55 14.4706 248.001 15.0341 247.603 15.7443C247.205 16.4451 247.002 17.2263 246.992 18.0881V21.6534C246.992 22.733 247.191 23.6657 247.589 24.4517C247.996 25.2377 248.569 25.8438 249.308 26.2699C250.046 26.696 250.922 26.9091 251.936 26.9091C252.608 26.9091 253.223 26.8144 253.782 26.625C254.341 26.4356 254.819 26.1515 255.217 25.7727C255.614 25.3939 255.918 24.9299 256.126 24.3807L261.722 24.75C261.438 26.0947 260.856 27.2689 259.975 28.2727C259.104 29.267 257.977 30.0436 256.595 30.6023C255.221 31.1515 253.635 31.4261 251.836 31.4261ZM284.353 15.4034L278.813 15.7443C278.718 15.2708 278.514 14.8447 278.202 14.4659C277.889 14.0777 277.478 13.7699 276.966 13.5426C276.464 13.3059 275.863 13.1875 275.162 13.1875C274.225 13.1875 273.434 13.3864 272.79 13.7841C272.146 14.1723 271.824 14.6932 271.824 15.3466C271.824 15.8674 272.032 16.3078 272.449 16.6676C272.866 17.0275 273.581 17.3163 274.594 17.5341L278.543 18.3295C280.664 18.7652 282.246 19.4659 283.287 20.4318C284.329 21.3977 284.85 22.6667 284.85 24.2386C284.85 25.6686 284.428 26.9233 283.586 28.0028C282.752 29.0824 281.606 29.9252 280.148 30.5312C278.699 31.1278 277.028 31.4261 275.134 31.4261C272.246 31.4261 269.944 30.8248 268.23 29.6222C266.526 28.41 265.527 26.7623 265.233 24.679L271.185 24.3665C271.365 25.2472 271.8 25.9195 272.492 26.3835C273.183 26.8381 274.068 27.0653 275.148 27.0653C276.209 27.0653 277.061 26.8617 277.705 26.4545C278.358 26.0379 278.69 25.5028 278.699 24.8494C278.69 24.3002 278.458 23.8504 278.003 23.5C277.549 23.1402 276.848 22.8655 275.901 22.6761L272.122 21.9233C269.992 21.4972 268.406 20.7585 267.364 19.7074C266.332 18.6562 265.816 17.3163 265.816 15.6875C265.816 14.286 266.194 13.0786 266.952 12.0653C267.719 11.0521 268.794 10.2708 270.176 9.72159C271.568 9.17235 273.197 8.89773 275.063 8.89773C277.818 8.89773 279.987 9.48011 281.568 10.6449C283.159 11.8097 284.087 13.3958 284.353 15.4034ZM307.214 15.4034L301.674 15.7443C301.579 15.2708 301.375 14.8447 301.063 14.4659C300.75 14.0777 300.339 13.7699 299.827 13.5426C299.325 13.3059 298.724 13.1875 298.023 13.1875C297.086 13.1875 296.295 13.3864 295.651 13.7841C295.007 14.1723 294.685 14.6932 294.685 15.3466C294.685 15.8674 294.893 16.3078 295.31 16.6676C295.727 17.0275 296.442 17.3163 297.455 17.5341L301.404 18.3295C303.525 18.7652 305.106 19.4659 306.148 20.4318C307.19 21.3977 307.711 22.6667 307.711 24.2386C307.711 25.6686 307.289 26.9233 306.446 28.0028C305.613 29.0824 304.467 29.9252 303.009 30.5312C301.56 31.1278 299.889 31.4261 297.995 31.4261C295.106 31.4261 292.805 30.8248 291.091 29.6222C289.387 28.41 288.388 26.7623 288.094 24.679L294.046 24.3665C294.226 25.2472 294.661 25.9195 295.353 26.3835C296.044 26.8381 296.929 27.0653 298.009 27.0653C299.07 27.0653 299.922 26.8617 300.566 26.4545C301.219 26.0379 301.551 25.5028 301.56 24.8494C301.551 24.3002 301.319 23.8504 300.864 23.5C300.41 23.1402 299.709 22.8655 298.762 22.6761L294.983 21.9233C292.853 21.4972 291.267 20.7585 290.225 19.7074C289.193 18.6562 288.677 17.3163 288.677 15.6875C288.677 14.286 289.055 13.0786 289.813 12.0653C290.58 11.0521 291.655 10.2708 293.037 9.72159C294.429 9.17235 296.058 8.89773 297.924 8.89773C300.679 8.89773 302.848 9.48011 304.429 10.6449C306.02 11.8097 306.948 13.3958 307.214 15.4034Z" fill="#00522D"/>
<rect y="71" width="1320" height="320" rx="48" fill="#00522D"/>
<g filter="url(#filter0_d_114_1058)">
<rect x="57" y="131" width="209.2" height="200" rx="36" fill="white" shape-rendering="crispEdges"/>
<g clip-path="url(#clip0_114_1058)">
<path d="M180.963 217.824L173.94 210.801C173.94 210.801 173.94 210.801 173.94 210.8C173.94 210.8 173.94 210.8 173.939 210.8L171.429 208.289C170.581 207.441 169.2 207.441 168.352 208.289L168.044 208.597L166.984 207.537C169.061 205.046 170.313 201.845 170.313 198.356C170.313 190.44 163.873 184 155.957 184C148.041 184 141.601 190.44 141.601 198.356C141.601 206.272 148.041 212.712 155.957 212.712C159.446 212.712 162.647 211.46 165.138 209.383L166.198 210.443L165.89 210.751C165.042 211.599 165.042 212.979 165.891 213.828L175.425 223.362C176.275 224.212 177.652 224.213 178.502 223.362L180.963 220.901C181.812 220.053 181.812 218.673 180.963 217.824ZM155.957 210.101C149.481 210.101 144.212 204.832 144.212 198.356C144.212 191.88 149.481 186.611 155.957 186.611C162.433 186.611 167.702 191.88 167.702 198.356C167.702 204.832 162.433 210.101 155.957 210.101ZM168.044 212.289L169.89 210.443L171.171 211.724L169.325 213.57L168.044 212.289ZM176.964 221.209L171.171 215.416L173.017 213.57L178.81 219.363L176.964 221.209Z" fill="#333333"/>
<path d="M155.956 189.221C155.235 189.221 154.651 189.805 154.651 190.526C154.651 191.247 155.235 191.831 155.956 191.831C159.554 191.831 162.48 194.758 162.48 198.355C162.48 199.076 163.065 199.66 163.785 199.66C164.506 199.66 165.091 199.076 165.091 198.355C165.091 193.318 160.993 189.221 155.956 189.221Z" fill="#333333"/>
</g>
<path d="M110.118 269H102.899V248.636H110.178C112.226 248.636 113.989 249.044 115.467 249.859C116.946 250.668 118.083 251.831 118.878 253.349C119.68 254.867 120.081 256.684 120.081 258.798C120.081 260.92 119.68 262.742 118.878 264.267C118.083 265.792 116.939 266.962 115.448 267.777C113.963 268.592 112.186 269 110.118 269ZM107.205 265.311H109.939C111.212 265.311 112.282 265.086 113.151 264.635C114.026 264.178 114.682 263.472 115.119 262.517C115.564 261.556 115.786 260.316 115.786 258.798C115.786 257.294 115.564 256.064 115.119 255.109C114.682 254.155 114.029 253.452 113.161 253.001C112.292 252.551 111.222 252.325 109.949 252.325H107.205V265.311ZM123.191 269V253.727H127.427V269H123.191ZM125.319 251.759C124.689 251.759 124.149 251.55 123.698 251.132C123.254 250.708 123.032 250.201 123.032 249.611C123.032 249.027 123.254 248.527 123.698 248.109C124.149 247.685 124.689 247.473 125.319 247.473C125.948 247.473 126.485 247.685 126.929 248.109C127.38 248.527 127.606 249.027 127.606 249.611C127.606 250.201 127.38 250.708 126.929 251.132C126.485 251.55 125.948 251.759 125.319 251.759ZM143.527 258.082L139.649 258.321C139.583 257.99 139.44 257.691 139.222 257.426C139.003 257.154 138.715 256.939 138.357 256.78C138.005 256.614 137.584 256.531 137.094 256.531C136.438 256.531 135.884 256.67 135.433 256.949C134.983 257.221 134.757 257.585 134.757 258.043C134.757 258.407 134.903 258.715 135.195 258.967C135.486 259.219 135.987 259.421 136.696 259.574L139.46 260.131C140.945 260.436 142.052 260.926 142.781 261.602C143.511 262.278 143.875 263.167 143.875 264.267C143.875 265.268 143.58 266.146 142.99 266.902C142.407 267.658 141.605 268.248 140.584 268.672C139.57 269.089 138.4 269.298 137.074 269.298C135.052 269.298 133.441 268.877 132.242 268.036C131.048 267.187 130.349 266.034 130.144 264.575L134.31 264.357C134.436 264.973 134.741 265.444 135.225 265.768C135.708 266.087 136.328 266.246 137.084 266.246C137.826 266.246 138.423 266.103 138.874 265.818C139.331 265.527 139.563 265.152 139.57 264.695C139.563 264.31 139.401 263.995 139.083 263.75C138.764 263.498 138.274 263.306 137.611 263.173L134.966 262.646C133.475 262.348 132.364 261.831 131.635 261.095C130.913 260.359 130.551 259.421 130.551 258.281C130.551 257.3 130.816 256.455 131.347 255.746C131.884 255.036 132.636 254.49 133.604 254.105C134.578 253.721 135.718 253.528 137.024 253.528C138.953 253.528 140.471 253.936 141.578 254.751C142.692 255.567 143.342 256.677 143.527 258.082ZM153.443 269.298C151.879 269.298 150.533 268.967 149.406 268.304C148.286 267.634 147.424 266.706 146.821 265.52C146.224 264.333 145.926 262.968 145.926 261.423C145.926 259.859 146.228 258.487 146.831 257.307C147.441 256.12 148.306 255.196 149.426 254.533C150.546 253.863 151.879 253.528 153.423 253.528C154.755 253.528 155.922 253.77 156.923 254.254C157.924 254.738 158.716 255.418 159.299 256.293C159.883 257.168 160.204 258.195 160.264 259.375H156.267C156.154 258.613 155.856 258 155.372 257.536C154.895 257.065 154.268 256.83 153.493 256.83C152.836 256.83 152.263 257.009 151.773 257.366C151.289 257.718 150.911 258.232 150.639 258.908C150.367 259.584 150.231 260.402 150.231 261.364C150.231 262.338 150.364 263.167 150.629 263.849C150.901 264.532 151.282 265.053 151.773 265.411C152.263 265.768 152.836 265.947 153.493 265.947C153.977 265.947 154.411 265.848 154.795 265.649C155.186 265.45 155.508 265.162 155.76 264.784C156.018 264.4 156.187 263.939 156.267 263.402H160.264C160.198 264.569 159.88 265.596 159.309 266.484C158.746 267.366 157.967 268.055 156.973 268.553C155.978 269.05 154.802 269.298 153.443 269.298ZM169.877 269.298C168.332 269.298 166.996 268.97 165.869 268.314C164.749 267.651 163.884 266.73 163.274 265.55C162.664 264.363 162.36 262.988 162.36 261.423C162.36 259.846 162.664 258.467 163.274 257.287C163.884 256.1 164.749 255.179 165.869 254.523C166.996 253.86 168.332 253.528 169.877 253.528C171.421 253.528 172.753 253.86 173.874 254.523C175.001 255.179 175.869 256.1 176.479 257.287C177.089 258.467 177.394 259.846 177.394 261.423C177.394 262.988 177.089 264.363 176.479 265.55C175.869 266.73 175.001 267.651 173.874 268.314C172.753 268.97 171.421 269.298 169.877 269.298ZM169.896 266.017C170.599 266.017 171.186 265.818 171.656 265.42C172.127 265.016 172.482 264.466 172.72 263.77C172.966 263.074 173.088 262.282 173.088 261.393C173.088 260.505 172.966 259.713 172.72 259.017C172.482 258.321 172.127 257.771 171.656 257.366C171.186 256.962 170.599 256.76 169.896 256.76C169.187 256.76 168.591 256.962 168.107 257.366C167.629 257.771 167.268 258.321 167.023 259.017C166.784 259.713 166.665 260.505 166.665 261.393C166.665 262.282 166.784 263.074 167.023 263.77C167.268 264.466 167.629 265.016 168.107 265.42C168.591 265.818 169.187 266.017 169.896 266.017ZM193.894 253.727L188.555 269H183.782L178.443 253.727H182.917L186.089 264.655H186.248L189.41 253.727H193.894ZM202.53 269.298C200.959 269.298 199.607 268.98 198.473 268.344C197.346 267.701 196.478 266.793 195.868 265.619C195.258 264.439 194.953 263.044 194.953 261.433C194.953 259.862 195.258 258.483 195.868 257.297C196.478 256.11 197.336 255.186 198.443 254.523C199.557 253.86 200.863 253.528 202.361 253.528C203.369 253.528 204.306 253.691 205.175 254.016C206.05 254.334 206.812 254.814 207.462 255.457C208.118 256.1 208.628 256.909 208.993 257.884C209.358 258.851 209.54 259.985 209.54 261.284V262.447H196.644V259.822H205.553C205.553 259.213 205.42 258.672 205.155 258.202C204.89 257.731 204.522 257.363 204.051 257.098C203.587 256.826 203.047 256.69 202.431 256.69C201.788 256.69 201.217 256.839 200.72 257.138C200.23 257.429 199.845 257.824 199.567 258.321C199.288 258.812 199.146 259.358 199.139 259.962V262.457C199.139 263.213 199.279 263.866 199.557 264.416C199.842 264.966 200.243 265.391 200.76 265.689C201.277 265.987 201.89 266.136 202.6 266.136C203.07 266.136 203.501 266.07 203.892 265.938C204.283 265.805 204.618 265.606 204.896 265.341C205.175 265.076 205.387 264.751 205.533 264.366L209.45 264.625C209.252 265.566 208.844 266.388 208.227 267.091C207.618 267.787 206.829 268.33 205.861 268.722C204.9 269.106 203.789 269.298 202.53 269.298ZM212.304 269V253.727H216.411V256.392H216.57C216.848 255.444 217.315 254.728 217.972 254.244C218.628 253.754 219.384 253.509 220.239 253.509C220.451 253.509 220.68 253.522 220.925 253.548C221.17 253.575 221.386 253.611 221.571 253.658V257.416C221.372 257.357 221.097 257.304 220.746 257.257C220.395 257.211 220.073 257.188 219.781 257.188C219.158 257.188 218.601 257.323 218.111 257.595C217.627 257.86 217.243 258.232 216.958 258.709C216.679 259.186 216.54 259.736 216.54 260.359V269H212.304Z" fill="#333333"/>
</g>
<g filter="url(#filter1_d_114_1058)">
<rect x="306.2" y="131" width="209.2" height="200" rx="36" fill="white" shape-rendering="crispEdges"/>
<path d="M409.133 215.251C407.767 215.255 406.415 214.967 405.169 214.407C403.923 213.846 402.811 213.025 401.908 211.999C401.005 210.973 400.332 209.766 399.934 208.459C399.536 207.152 399.422 205.774 399.6 204.419C399.778 203.065 400.243 201.763 400.965 200.603C401.688 199.443 402.65 198.451 403.787 197.693C404.924 196.935 406.21 196.429 407.559 196.209C408.907 195.989 410.288 196.06 411.607 196.417C411.912 196.515 412.168 196.727 412.322 197.008C412.476 197.29 412.516 197.619 412.434 197.929C412.352 198.239 412.154 198.506 411.881 198.675C411.608 198.843 411.281 198.9 410.967 198.834C410.369 198.67 409.753 198.586 409.133 198.584C407.732 198.584 406.363 198.999 405.198 199.778C404.033 200.556 403.125 201.662 402.589 202.957C402.053 204.251 401.913 205.675 402.186 207.049C402.46 208.423 403.134 209.685 404.125 210.676C405.115 211.667 406.377 212.341 407.752 212.614C409.126 212.888 410.55 212.748 411.844 212.211C413.138 211.675 414.245 210.767 415.023 209.603C415.801 208.438 416.217 207.068 416.217 205.667C416.218 205.048 416.136 204.432 415.975 203.834C415.898 203.517 415.948 203.182 416.115 202.901C416.281 202.62 416.551 202.415 416.866 202.33C417.182 202.246 417.518 202.287 417.803 202.447C418.088 202.606 418.299 202.871 418.392 203.184C418.773 204.604 418.822 206.093 418.535 207.535C418.249 208.977 417.634 210.334 416.739 211.501C415.844 212.668 414.692 213.613 413.373 214.263C412.055 214.913 410.604 215.251 409.133 215.251Z" fill="#333333"/>
<path d="M409.133 221.918C406.653 221.92 404.206 221.355 401.978 220.265C399.75 219.175 397.801 217.589 396.281 215.63C394.761 213.67 393.709 211.389 393.206 208.96C392.704 206.532 392.764 204.02 393.382 201.619C394 199.217 395.16 196.988 396.772 195.104C398.384 193.219 400.407 191.729 402.684 190.747C404.961 189.764 407.433 189.317 409.91 189.437C412.387 189.558 414.804 190.244 416.975 191.443C417.122 191.521 417.252 191.627 417.357 191.756C417.463 191.885 417.541 192.033 417.588 192.193C417.636 192.352 417.65 192.52 417.632 192.685C417.614 192.851 417.563 193.011 417.482 193.156C417.401 193.301 417.291 193.429 417.161 193.532C417.03 193.634 416.879 193.71 416.719 193.753C416.558 193.797 416.391 193.808 416.226 193.787C416.061 193.765 415.902 193.71 415.758 193.626C413.731 192.502 411.451 191.914 409.133 191.918C406.414 191.918 403.755 192.724 401.494 194.235C399.233 195.746 397.471 197.894 396.43 200.406C395.389 202.919 395.117 205.683 395.648 208.35C396.178 211.018 397.488 213.468 399.411 215.391C401.334 217.314 403.784 218.623 406.451 219.154C409.118 219.684 411.883 219.412 414.395 218.371C416.908 217.331 419.055 215.568 420.566 213.307C422.077 211.046 422.883 208.387 422.883 205.668C422.887 203.35 422.299 201.07 421.175 199.043C421.022 198.754 420.988 198.417 421.081 198.103C421.174 197.79 421.385 197.525 421.671 197.366C421.957 197.207 422.293 197.166 422.609 197.252C422.924 197.338 423.193 197.544 423.358 197.826C424.725 200.299 425.422 203.086 425.382 205.912C425.342 208.737 424.565 211.503 423.128 213.936C421.692 216.369 419.645 218.385 417.191 219.785C414.736 221.185 411.959 221.92 409.133 221.918Z" fill="#333333"/>
<path d="M409.133 206.917C408.886 206.917 408.645 206.844 408.44 206.706C408.234 206.569 408.074 206.374 407.98 206.146C407.885 205.917 407.86 205.666 407.908 205.424C407.957 205.181 408.075 204.959 408.25 204.784L421.583 191.451C421.82 191.23 422.134 191.11 422.458 191.115C422.781 191.121 423.09 191.252 423.319 191.481C423.548 191.71 423.68 192.019 423.685 192.343C423.691 192.667 423.571 192.98 423.35 193.217L410.017 206.551C409.901 206.667 409.763 206.76 409.612 206.823C409.46 206.886 409.298 206.918 409.133 206.917Z" fill="#333333"/>
<path d="M427.467 193.584H422.467C422.135 193.584 421.817 193.452 421.583 193.218C421.348 192.983 421.217 192.666 421.217 192.334V187.334C421.217 187.002 421.348 186.685 421.583 186.45C421.817 186.216 422.135 186.084 422.467 186.084C422.798 186.084 423.116 186.216 423.351 186.45C423.585 186.685 423.717 187.002 423.717 187.334V191.084H427.467C427.798 191.084 428.116 191.216 428.351 191.45C428.585 191.685 428.717 192.002 428.717 192.334C428.717 192.666 428.585 192.983 428.351 193.218C428.116 193.452 427.798 193.584 427.467 193.584Z" fill="#333333"/>
<path d="M409.134 208.168C410.514 208.168 411.634 207.049 411.634 205.668C411.634 204.287 410.514 203.168 409.134 203.168C407.753 203.168 406.634 204.287 406.634 205.668C406.634 207.049 407.753 208.168 409.134 208.168Z" fill="#333333"/>
<path d="M374.945 269H367.726V248.636H375.005C377.053 248.636 378.816 249.044 380.294 249.859C381.773 250.668 382.909 251.831 383.705 253.349C384.507 254.867 384.908 256.684 384.908 258.798C384.908 260.92 384.507 262.742 383.705 264.267C382.909 265.792 381.766 266.962 380.274 267.777C378.79 268.592 377.013 269 374.945 269ZM372.032 265.311H374.766C376.039 265.311 377.109 265.086 377.978 264.635C378.853 264.178 379.509 263.472 379.946 262.517C380.39 261.556 380.613 260.316 380.613 258.798C380.613 257.294 380.39 256.064 379.946 255.109C379.509 254.155 378.856 253.452 377.988 253.001C377.119 252.551 376.049 252.325 374.776 252.325H372.032V265.311ZM394.978 269.298C393.407 269.298 392.055 268.98 390.921 268.344C389.794 267.701 388.926 266.793 388.316 265.619C387.706 264.439 387.401 263.044 387.401 261.433C387.401 259.862 387.706 258.483 388.316 257.297C388.926 256.11 389.784 255.186 390.891 254.523C392.005 253.86 393.311 253.528 394.809 253.528C395.817 253.528 396.754 253.691 397.623 254.016C398.498 254.334 399.26 254.814 399.91 255.457C400.566 256.1 401.076 256.909 401.441 257.884C401.806 258.851 401.988 259.985 401.988 261.284V262.447H389.092V259.822H398.001C398.001 259.213 397.868 258.672 397.603 258.202C397.338 257.731 396.97 257.363 396.499 257.098C396.035 256.826 395.495 256.69 394.879 256.69C394.236 256.69 393.665 256.839 393.168 257.138C392.678 257.429 392.293 257.824 392.015 258.321C391.736 258.812 391.594 259.358 391.587 259.962V262.457C391.587 263.213 391.727 263.866 392.005 264.416C392.29 264.966 392.691 265.391 393.208 265.689C393.725 265.987 394.338 266.136 395.048 266.136C395.518 266.136 395.949 266.07 396.34 265.938C396.731 265.805 397.066 265.606 397.344 265.341C397.623 265.076 397.835 264.751 397.981 264.366L401.898 264.625C401.7 265.566 401.292 266.388 400.675 267.091C400.066 267.787 399.277 268.33 398.309 268.722C397.348 269.106 396.237 269.298 394.978 269.298ZM412.965 253.727V256.909H403.539V253.727H412.965ZM405.697 269V252.624C405.697 251.517 405.912 250.598 406.343 249.869C406.781 249.14 407.377 248.593 408.133 248.229C408.888 247.864 409.747 247.682 410.708 247.682C411.358 247.682 411.951 247.732 412.488 247.831C413.031 247.93 413.436 248.02 413.701 248.099L412.945 251.281C412.78 251.228 412.574 251.179 412.329 251.132C412.09 251.086 411.845 251.062 411.593 251.062C410.97 251.062 410.536 251.208 410.29 251.5C410.045 251.785 409.923 252.186 409.923 252.703V269H405.697ZM415.553 269V253.727H419.789V269H415.553ZM417.681 251.759C417.051 251.759 416.511 251.55 416.06 251.132C415.616 250.708 415.394 250.201 415.394 249.611C415.394 249.027 415.616 248.527 416.06 248.109C416.511 247.685 417.051 247.473 417.681 247.473C418.31 247.473 418.847 247.685 419.292 248.109C419.742 248.527 419.968 249.027 419.968 249.611C419.968 250.201 419.742 250.708 419.292 251.132C418.847 251.55 418.31 251.759 417.681 251.759ZM427.418 260.17V269H423.182V253.727H427.219V256.422H427.398C427.736 255.534 428.303 254.831 429.098 254.314C429.893 253.79 430.858 253.528 431.991 253.528C433.052 253.528 433.977 253.76 434.766 254.224C435.554 254.688 436.168 255.351 436.605 256.213C437.043 257.068 437.261 258.089 437.261 259.276V269H433.026V260.031C433.032 259.097 432.794 258.367 432.31 257.844C431.826 257.313 431.16 257.048 430.311 257.048C429.741 257.048 429.237 257.171 428.8 257.416C428.369 257.661 428.031 258.019 427.785 258.49C427.547 258.954 427.424 259.514 427.418 260.17ZM447.56 269.298C445.989 269.298 444.637 268.98 443.503 268.344C442.376 267.701 441.508 266.793 440.898 265.619C440.288 264.439 439.983 263.044 439.983 261.433C439.983 259.862 440.288 258.483 440.898 257.297C441.508 256.11 442.366 255.186 443.473 254.523C444.587 253.86 445.893 253.528 447.391 253.528C448.399 253.528 449.337 253.691 450.205 254.016C451.08 254.334 451.842 254.814 452.492 255.457C453.148 256.1 453.658 256.909 454.023 257.884C454.388 258.851 454.57 259.985 454.57 261.284V262.447H441.674V259.822H450.583C450.583 259.213 450.45 258.672 450.185 258.202C449.92 257.731 449.552 257.363 449.081 257.098C448.617 256.826 448.077 256.69 447.461 256.69C446.818 256.69 446.247 256.839 445.75 257.138C445.26 257.429 444.875 257.824 444.597 258.321C444.319 258.812 444.176 259.358 444.169 259.962V262.457C444.169 263.213 444.309 263.866 444.587 264.416C444.872 264.966 445.273 265.391 445.79 265.689C446.307 265.987 446.92 266.136 447.63 266.136C448.1 266.136 448.531 266.07 448.922 265.938C449.313 265.805 449.648 265.606 449.926 265.341C450.205 265.076 450.417 264.751 450.563 264.366L454.48 264.625C454.282 265.566 453.874 266.388 453.257 267.091C452.648 267.787 451.859 268.33 450.891 268.722C449.93 269.106 448.819 269.298 447.56 269.298Z" fill="#333333"/>
</g>
<g filter="url(#filter2_d_114_1058)">
<rect x="555.4" y="131" width="209.2" height="200" rx="36" fill="white" shape-rendering="crispEdges"/>
<g clip-path="url(#clip1_114_1058)">
<path d="M669.237 204.839L670.219 203.857C670.219 203.857 670.22 203.857 670.22 203.857C670.22 203.856 670.221 203.856 670.221 203.856L673.684 200.392C673.684 200.392 673.685 200.392 673.685 200.392C673.685 200.391 673.685 200.391 673.685 200.391L677.15 196.927C677.15 196.927 677.15 196.927 677.15 196.927C677.15 196.927 677.15 196.927 677.15 196.926L679.053 195.024C679.664 194.413 680 193.601 680 192.737C680 191.873 679.664 191.061 679.053 190.45L673.55 184.947C672.939 184.337 672.127 184 671.263 184C670.399 184 669.587 184.336 668.976 184.947L659.161 194.763L652.498 188.1C651.383 186.985 649.985 186.191 648.456 185.804L641.459 184.036C641.059 183.935 640.635 184.051 640.343 184.343C640.051 184.635 639.935 185.059 640.036 185.459L641.805 192.456C642.191 193.985 642.985 195.383 644.1 196.498L650.763 203.161L640.947 212.976C640.336 213.587 640 214.399 640 215.263C640 216.127 640.336 216.939 640.947 217.55L646.45 223.053C647.061 223.664 647.873 224 648.737 224C649.601 224 650.413 223.664 651.024 223.053L656.389 217.687C656.39 217.687 656.391 217.686 656.392 217.685C656.392 217.684 656.393 217.683 656.394 217.682L660.839 213.237L669.863 222.261C671.02 223.418 672.541 223.997 674.062 223.997C675.582 223.997 677.103 223.419 678.261 222.261C680.576 219.945 680.576 216.178 678.261 213.863L669.237 204.839ZM644.077 191.881L642.79 186.79L647.881 188.077C649.001 188.36 650.024 188.941 650.841 189.758L651.765 190.682L646.681 195.765L645.757 194.841C644.941 194.024 644.36 193.001 644.077 191.881ZM648.339 197.422L653.422 192.339L657.503 196.42L652.42 201.504L648.339 197.422ZM648.737 221.656C648.499 221.656 648.276 221.564 648.108 221.395L642.605 215.893C642.436 215.724 642.344 215.501 642.344 215.263C642.344 215.025 642.436 214.802 642.605 214.633L670.634 186.605C670.802 186.436 671.025 186.344 671.263 186.344C671.501 186.344 671.724 186.436 671.893 186.605L677.396 192.107C677.564 192.276 677.656 192.499 677.656 192.737C677.656 192.975 677.564 193.198 677.396 193.367L676.321 194.441L672.746 190.866C672.289 190.408 671.547 190.408 671.089 190.866C670.632 191.324 670.632 192.066 671.089 192.523L674.664 196.098L672.856 197.906L671.014 196.064C670.556 195.606 669.814 195.606 669.357 196.064C668.899 196.521 668.899 197.263 669.357 197.721L671.199 199.563L669.391 201.371L665.817 197.796C665.359 197.338 664.617 197.338 664.159 197.796C663.702 198.253 663.702 198.995 664.159 199.453L667.734 203.028L665.926 204.836L664.084 202.993C663.627 202.536 662.885 202.536 662.427 202.993C661.969 203.451 661.969 204.193 662.427 204.651L664.269 206.493L662.493 208.269L658.918 204.694C658.46 204.237 657.718 204.237 657.261 204.694C656.803 205.152 656.803 205.894 657.261 206.352L660.836 209.926L659.028 211.734L657.186 209.892C656.728 209.434 655.986 209.434 655.528 209.892C655.071 210.349 655.071 211.091 655.528 211.549L657.371 213.391L655.563 215.199L651.988 211.624C651.531 211.167 650.789 211.167 650.331 211.624C649.873 212.082 649.873 212.824 650.331 213.282L653.906 216.856L652.098 218.664L650.256 216.822C649.798 216.364 649.056 216.364 648.599 216.822C648.141 217.279 648.141 218.021 648.599 218.479L650.441 220.321L649.366 221.395C649.198 221.564 648.975 221.656 648.737 221.656ZM663.317 210.76C663.318 210.758 663.32 210.757 663.322 210.755C663.323 210.753 663.325 210.752 663.326 210.75L666.754 207.323C666.754 207.322 666.755 207.322 666.755 207.321C666.756 207.321 666.756 207.321 666.756 207.32L667.58 206.497L672.546 211.462L667.462 216.546L662.497 211.58L663.317 210.76ZM676.603 220.603C675.202 222.005 672.921 222.005 671.52 220.603L669.12 218.203L674.203 213.12L676.604 215.52C678.005 216.922 678.005 219.202 676.603 220.603Z" fill="#333333"/>
</g>
<path d="M621.192 269H613.973V248.636H621.251C623.3 248.636 625.063 249.044 626.541 249.859C628.019 250.668 629.156 251.831 629.952 253.349C630.754 254.867 631.155 256.684 631.155 258.798C631.155 260.92 630.754 262.742 629.952 264.267C629.156 265.792 628.013 266.962 626.521 267.777C625.036 268.592 623.26 269 621.192 269ZM618.278 265.311H621.013C622.286 265.311 623.356 265.086 624.224 264.635C625.099 264.178 625.756 263.472 626.193 262.517C626.637 261.556 626.859 260.316 626.859 258.798C626.859 257.294 626.637 256.064 626.193 255.109C625.756 254.155 625.103 253.452 624.234 253.001C623.366 252.551 622.295 252.325 621.023 252.325H618.278V265.311ZM641.225 269.298C639.654 269.298 638.301 268.98 637.168 268.344C636.041 267.701 635.173 266.793 634.563 265.619C633.953 264.439 633.648 263.044 633.648 261.433C633.648 259.862 633.953 258.483 634.563 257.297C635.173 256.11 636.031 255.186 637.138 254.523C638.252 253.86 639.558 253.528 641.056 253.528C642.063 253.528 643.001 253.691 643.87 254.016C644.745 254.334 645.507 254.814 646.157 255.457C646.813 256.1 647.323 256.909 647.688 257.884C648.052 258.851 648.235 259.985 648.235 261.284V262.447H635.338V259.822H644.248C644.248 259.213 644.115 258.672 643.85 258.202C643.585 257.731 643.217 257.363 642.746 257.098C642.282 256.826 641.742 256.69 641.125 256.69C640.482 256.69 639.912 256.839 639.415 257.138C638.925 257.429 638.54 257.824 638.262 258.321C637.983 258.812 637.841 259.358 637.834 259.962V262.457C637.834 263.213 637.973 263.866 638.252 264.416C638.537 264.966 638.938 265.391 639.455 265.689C639.972 265.987 640.585 266.136 641.294 266.136C641.765 266.136 642.196 266.07 642.587 265.938C642.978 265.805 643.313 265.606 643.591 265.341C643.87 265.076 644.082 264.751 644.228 264.366L648.145 264.625C647.946 265.566 647.539 266.388 646.922 267.091C646.312 267.787 645.524 268.33 644.556 268.722C643.595 269.106 642.484 269.298 641.225 269.298ZM663.706 258.082L659.828 258.321C659.762 257.99 659.62 257.691 659.401 257.426C659.182 257.154 658.894 256.939 658.536 256.78C658.185 256.614 657.764 256.531 657.273 256.531C656.617 256.531 656.063 256.67 655.613 256.949C655.162 257.221 654.936 257.585 654.936 258.043C654.936 258.407 655.082 258.715 655.374 258.967C655.666 259.219 656.166 259.421 656.875 259.574L659.64 260.131C661.124 260.436 662.231 260.926 662.961 261.602C663.69 262.278 664.054 263.167 664.054 264.267C664.054 265.268 663.759 266.146 663.169 266.902C662.586 267.658 661.784 268.248 660.763 268.672C659.749 269.089 658.579 269.298 657.253 269.298C655.231 269.298 653.621 268.877 652.421 268.036C651.228 267.187 650.528 266.034 650.323 264.575L654.489 264.357C654.615 264.973 654.92 265.444 655.404 265.768C655.888 266.087 656.507 266.246 657.263 266.246C658.006 266.246 658.602 266.103 659.053 265.818C659.51 265.527 659.742 265.152 659.749 264.695C659.742 264.31 659.58 263.995 659.262 263.75C658.944 263.498 658.453 263.306 657.79 263.173L655.145 262.646C653.654 262.348 652.543 261.831 651.814 261.095C651.092 260.359 650.73 259.421 650.73 258.281C650.73 257.3 650.996 256.455 651.526 255.746C652.063 255.036 652.815 254.49 653.783 254.105C654.757 253.721 655.898 253.528 657.203 253.528C659.132 253.528 660.65 253.936 661.757 254.751C662.871 255.567 663.521 256.677 663.706 258.082ZM666.722 269V253.727H670.957V269H666.722ZM668.849 251.759C668.22 251.759 667.679 251.55 667.229 251.132C666.785 250.708 666.562 250.201 666.562 249.611C666.562 249.027 666.785 248.527 667.229 248.109C667.679 247.685 668.22 247.473 668.849 247.473C669.479 247.473 670.016 247.685 670.46 248.109C670.911 248.527 671.136 249.027 671.136 249.611C671.136 250.201 670.911 250.708 670.46 251.132C670.016 251.55 669.479 251.759 668.849 251.759ZM681.231 275.045C679.859 275.045 678.682 274.857 677.701 274.479C676.727 274.107 675.951 273.6 675.375 272.957C674.798 272.314 674.423 271.592 674.251 270.79L678.169 270.263C678.288 270.568 678.477 270.853 678.735 271.118C678.994 271.383 679.335 271.595 679.76 271.754C680.19 271.92 680.714 272.003 681.331 272.003C682.252 272.003 683.011 271.777 683.608 271.327C684.211 270.883 684.512 270.137 684.512 269.089V266.295H684.333C684.148 266.72 683.869 267.121 683.498 267.499C683.127 267.876 682.65 268.185 682.066 268.423C681.483 268.662 680.787 268.781 679.978 268.781C678.832 268.781 677.788 268.516 676.846 267.986C675.912 267.449 675.166 266.63 674.609 265.53C674.059 264.423 673.784 263.024 673.784 261.334C673.784 259.604 674.065 258.159 674.629 256.999C675.192 255.839 675.941 254.97 676.876 254.393C677.817 253.817 678.848 253.528 679.968 253.528C680.824 253.528 681.539 253.674 682.116 253.966C682.693 254.251 683.157 254.609 683.508 255.04C683.866 255.464 684.141 255.882 684.333 256.293H684.493V253.727H688.699V269.149C688.699 270.448 688.38 271.536 687.744 272.411C687.108 273.286 686.226 273.942 685.099 274.379C683.979 274.823 682.69 275.045 681.231 275.045ZM681.321 265.599C682.003 265.599 682.58 265.43 683.051 265.092C683.528 264.748 683.893 264.257 684.145 263.621C684.403 262.978 684.532 262.209 684.532 261.314C684.532 260.419 684.406 259.643 684.154 258.987C683.903 258.324 683.538 257.811 683.061 257.446C682.583 257.081 682.003 256.899 681.321 256.899C680.625 256.899 680.038 257.088 679.561 257.466C679.083 257.837 678.722 258.354 678.477 259.017C678.232 259.68 678.109 260.446 678.109 261.314C678.109 262.196 678.232 262.958 678.477 263.601C678.729 264.237 679.09 264.731 679.561 265.082C680.038 265.427 680.625 265.599 681.321 265.599ZM696.305 260.17V269H692.069V253.727H696.106V256.422H696.285C696.623 255.534 697.19 254.831 697.985 254.314C698.781 253.79 699.745 253.528 700.879 253.528C701.94 253.528 702.864 253.76 703.653 254.224C704.442 254.688 705.055 255.351 705.493 256.213C705.93 257.068 706.149 258.089 706.149 259.276V269H701.913V260.031C701.92 259.097 701.681 258.367 701.197 257.844C700.713 257.313 700.047 257.048 699.199 257.048C698.628 257.048 698.125 257.171 697.687 257.416C697.256 257.661 696.918 258.019 696.673 258.49C696.434 258.954 696.312 259.514 696.305 260.17Z" fill="#333333"/>
</g>
<g filter="url(#filter3_d_114_1058)">
<rect x="804.6" y="131" width="209.2" height="200" rx="36" fill="white" shape-rendering="crispEdges"/>
<g clip-path="url(#clip2_114_1058)">
<g clip-path="url(#clip3_114_1058)">
<mask id="mask0_114_1058" style="mask-type:luminance" maskUnits="userSpaceOnUse" x="889" y="184" width="41" height="41">
<path d="M889.333 184.334H929.333V224.334H889.333V184.334Z" fill="white"/>
</mask>
<g mask="url(#mask0_114_1058)">
<path d="M890.115 196.469H902.372H925.702" stroke="#333333" stroke-width="1.57625" stroke-miterlimit="10" stroke-linecap="round" stroke-linejoin="round"/>
<path d="M896.638 193.145C897.662 193.145 898.496 192.312 898.496 191.29C898.496 190.267 897.662 189.435 896.638 189.435C895.618 189.435 894.783 190.267 894.783 191.29C894.783 192.312 895.618 193.145 896.638 193.145Z" stroke="#333333" stroke-width="1.57625" stroke-miterlimit="10" stroke-linecap="round" stroke-linejoin="round"/>
<path d="M912.767 189.435H919.756C920.777 189.435 921.612 190.269 921.612 191.29C921.612 192.31 920.777 193.145 919.756 193.145H912.767C911.746 193.145 910.911 192.31 910.911 191.29C910.911 190.269 911.746 189.435 912.767 189.435Z" stroke="#333333" stroke-width="1.57625" stroke-miterlimit="10" stroke-linecap="round" stroke-linejoin="round"/>
<path d="M903.491 193.145C904.514 193.145 905.349 192.312 905.349 191.29C905.349 190.267 904.514 189.435 903.491 189.435C902.47 189.435 901.635 190.267 901.635 191.29C901.635 192.312 902.47 193.145 903.491 193.145Z" stroke="#333333" stroke-width="1.57625" stroke-miterlimit="10" stroke-linecap="round" stroke-linejoin="round"/>
<path d="M902.022 202.477L900.458 209.02" stroke="#333333" stroke-width="1.57625" stroke-miterlimit="10" stroke-linecap="round" stroke-linejoin="round"/>
<path d="M905.623 208.43L907.835 205.946C907.933 205.838 907.933 205.661 907.835 205.552L905.623 203.069" stroke="#333333" stroke-width="1.57625" stroke-miterlimit="10" stroke-linecap="round" stroke-linejoin="round"/>
<path d="M896.858 208.43L894.645 205.946C894.548 205.838 894.548 205.661 894.645 205.552L896.858 203.069" stroke="#333333" stroke-width="1.57625" stroke-miterlimit="10" stroke-linecap="round" stroke-linejoin="round"/>
<path d="M920.936 205.931C921.791 206.121 922.59 206.458 923.31 206.909L923.95 206.272C924.329 205.891 924.951 205.891 925.332 206.272L926.34 207.279C926.72 207.66 926.72 208.281 926.34 208.66L925.702 209.3C926.151 210.012 926.484 210.805 926.676 211.65H927.573C928.111 211.65 928.552 212.091 928.552 212.626V214.054C928.552 214.59 928.111 215.03 927.573 215.03H926.672C926.479 215.871 926.147 216.659 925.702 217.367L926.34 218.005C926.72 218.385 926.72 219.007 926.34 219.386L925.332 220.395C924.951 220.776 924.329 220.776 923.95 220.395L923.31 219.758C922.599 220.205 921.809 220.537 920.963 220.729V221.637C920.963 222.175 920.522 222.615 919.986 222.615H918.558C918.022 222.615 917.581 222.175 917.581 221.637V220.727C916.74 220.537 915.949 220.203 915.238 219.758L914.6 220.395C914.219 220.776 913.597 220.776 913.219 220.395L912.209 219.386C911.83 219.007 911.83 218.385 912.209 218.005L912.849 217.367C912.401 216.659 912.069 215.871 911.877 215.03H910.971C910.433 215.03 909.994 214.59 909.994 214.054V212.626C909.994 212.091 910.433 211.65 910.971 211.65H911.874C912.065 210.814 912.393 210.03 912.833 209.324L912.191 208.68C911.81 208.301 911.81 207.679 912.191 207.299L913.199 206.292C913.58 205.911 914.202 205.911 914.58 206.292L915.216 206.925C915.925 206.475 916.713 206.141 917.555 205.944V205.043C917.555 204.505 917.993 204.065 918.531 204.065H919.957C920.495 204.065 920.936 204.505 920.936 205.043V205.931Z" stroke="#333333" stroke-width="1.57625" stroke-miterlimit="10" stroke-linecap="round" stroke-linejoin="round"/>
<path d="M919.273 209.315C921.497 209.315 923.299 211.117 923.299 213.341C923.299 215.564 921.497 217.365 919.273 217.365C917.048 217.365 915.245 215.564 915.245 213.341C915.245 211.117 917.048 209.315 919.273 209.315Z" stroke="#333333" stroke-width="1.57625" stroke-miterlimit="10" stroke-linecap="round" stroke-linejoin="round"/>
<path d="M897.648 215.029H893.024C891.426 215.029 890.115 213.465 890.115 211.554V189.527C890.115 187.615 891.423 186.052 893.024 186.052H896.395H922.792C924.393 186.052 925.702 187.617 925.702 189.527V206.641M910.971 215.029H904.631" stroke="#333333" stroke-width="1.57625" stroke-miterlimit="10" stroke-linecap="round" stroke-linejoin="round"/>
<path d="M901.147 215.029H901.163" stroke="#333333" stroke-width="1.57625" stroke-miterlimit="10" stroke-linecap="round" stroke-linejoin="round"/>
</g>
</g>
</g>
<path d="M862.257 269H855.038V248.636H862.317C864.365 248.636 866.128 249.044 867.607 249.859C869.085 250.668 870.222 251.831 871.017 253.349C871.819 254.867 872.22 256.684 872.22 258.798C872.22 260.92 871.819 262.742 871.017 264.267C870.222 265.792 869.078 266.962 867.587 267.777C866.102 268.592 864.325 269 862.257 269ZM859.344 265.311H862.078C863.351 265.311 864.421 265.086 865.29 264.635C866.165 264.178 866.821 263.472 867.259 262.517C867.703 261.556 867.925 260.316 867.925 258.798C867.925 257.294 867.703 256.064 867.259 255.109C866.821 254.155 866.168 253.452 865.3 253.001C864.431 252.551 863.361 252.325 862.088 252.325H859.344V265.311ZM882.29 269.298C880.719 269.298 879.367 268.98 878.233 268.344C877.107 267.701 876.238 266.793 875.628 265.619C875.018 264.439 874.714 263.044 874.714 261.433C874.714 259.862 875.018 258.483 875.628 257.297C876.238 256.11 877.097 255.186 878.204 254.523C879.317 253.86 880.623 253.528 882.121 253.528C883.129 253.528 884.067 253.691 884.935 254.016C885.81 254.334 886.572 254.814 887.222 255.457C887.878 256.1 888.389 256.909 888.753 257.884C889.118 258.851 889.3 259.985 889.3 261.284V262.447H876.404V259.822H885.313C885.313 259.213 885.18 258.672 884.915 258.202C884.65 257.731 884.282 257.363 883.812 257.098C883.348 256.826 882.807 256.69 882.191 256.69C881.548 256.69 880.978 256.839 880.481 257.138C879.99 257.429 879.606 257.824 879.327 258.321C879.049 258.812 878.906 259.358 878.9 259.962V262.457C878.9 263.213 879.039 263.866 879.317 264.416C879.602 264.966 880.003 265.391 880.52 265.689C881.037 265.987 881.651 266.136 882.36 266.136C882.83 266.136 883.261 266.07 883.652 265.938C884.044 265.805 884.378 265.606 884.657 265.341C884.935 265.076 885.147 264.751 885.293 264.366L889.211 264.625C889.012 265.566 888.604 266.388 887.988 267.091C887.378 267.787 886.589 268.33 885.621 268.722C884.66 269.106 883.55 269.298 882.29 269.298ZM905.893 253.727L900.553 269H895.781L890.441 253.727H894.916L898.087 264.655H898.247L901.408 253.727H905.893ZM914.528 269.298C912.957 269.298 911.605 268.98 910.472 268.344C909.345 267.701 908.476 266.793 907.867 265.619C907.257 264.439 906.952 263.044 906.952 261.433C906.952 259.862 907.257 258.483 907.867 257.297C908.476 256.11 909.335 255.186 910.442 254.523C911.555 253.86 912.861 253.528 914.359 253.528C915.367 253.528 916.305 253.691 917.173 254.016C918.048 254.334 918.811 254.814 919.46 255.457C920.117 256.1 920.627 256.909 920.992 257.884C921.356 258.851 921.538 259.985 921.538 261.284V262.447H908.642V259.822H917.551C917.551 259.213 917.419 258.672 917.153 258.202C916.888 257.731 916.52 257.363 916.05 257.098C915.586 256.826 915.046 256.69 914.429 256.69C913.786 256.69 913.216 256.839 912.719 257.138C912.228 257.429 911.844 257.824 911.565 258.321C911.287 258.812 911.145 259.358 911.138 259.962V262.457C911.138 263.213 911.277 263.866 911.555 264.416C911.841 264.966 912.242 265.391 912.759 265.689C913.276 265.987 913.889 266.136 914.598 266.136C915.069 266.136 915.5 266.07 915.891 265.938C916.282 265.805 916.617 265.606 916.895 265.341C917.173 265.076 917.386 264.751 917.531 264.366L921.449 264.625C921.25 265.566 920.842 266.388 920.226 267.091C919.616 267.787 918.827 268.33 917.859 268.722C916.898 269.106 915.788 269.298 914.528 269.298ZM928.538 248.636V269H924.303V248.636H928.538ZM938.832 269.298C937.288 269.298 935.952 268.97 934.825 268.314C933.705 267.651 932.84 266.73 932.23 265.55C931.62 264.363 931.315 262.988 931.315 261.423C931.315 259.846 931.62 258.467 932.23 257.287C932.84 256.1 933.705 255.179 934.825 254.523C935.952 253.86 937.288 253.528 938.832 253.528C940.377 253.528 941.709 253.86 942.829 254.523C943.956 255.179 944.825 256.1 945.434 257.287C946.044 258.467 946.349 259.846 946.349 261.423C946.349 262.988 946.044 264.363 945.434 265.55C944.825 266.73 943.956 267.651 942.829 268.314C941.709 268.97 940.377 269.298 938.832 269.298ZM938.852 266.017C939.555 266.017 940.141 265.818 940.612 265.42C941.083 265.016 941.437 264.466 941.676 263.77C941.921 263.074 942.044 262.282 942.044 261.393C942.044 260.505 941.921 259.713 941.676 259.017C941.437 258.321 941.083 257.771 940.612 257.366C940.141 256.962 939.555 256.76 938.852 256.76C938.143 256.76 937.546 256.962 937.062 257.366C936.585 257.771 936.224 258.321 935.978 259.017C935.74 259.713 935.62 260.505 935.62 261.393C935.62 262.282 935.74 263.074 935.978 263.77C936.224 264.466 936.585 265.016 937.062 265.42C937.546 265.818 938.143 266.017 938.852 266.017ZM949.103 274.727V253.727H953.28V256.293H953.468C953.654 255.882 953.923 255.464 954.274 255.04C954.632 254.609 955.096 254.251 955.666 253.966C956.243 253.674 956.959 253.528 957.814 253.528C958.927 253.528 959.955 253.82 960.896 254.403C961.837 254.98 962.59 255.852 963.153 257.018C963.717 258.179 963.998 259.634 963.998 261.384C963.998 263.087 963.723 264.526 963.173 265.699C962.629 266.866 961.887 267.75 960.946 268.354C960.011 268.95 958.964 269.249 957.804 269.249C956.982 269.249 956.282 269.113 955.706 268.841C955.136 268.569 954.668 268.228 954.304 267.817C953.939 267.399 953.661 266.978 953.468 266.554H953.339V274.727H949.103ZM953.25 261.364C953.25 262.272 953.376 263.064 953.628 263.74C953.879 264.416 954.244 264.943 954.721 265.321C955.199 265.692 955.779 265.878 956.461 265.878C957.151 265.878 957.734 265.689 958.211 265.311C958.689 264.927 959.05 264.396 959.295 263.72C959.547 263.037 959.673 262.252 959.673 261.364C959.673 260.482 959.55 259.706 959.305 259.037C959.06 258.367 958.699 257.844 958.221 257.466C957.744 257.088 957.157 256.899 956.461 256.899C955.772 256.899 955.189 257.081 954.711 257.446C954.241 257.811 953.879 258.328 953.628 258.997C953.376 259.667 953.25 260.455 953.25 261.364Z" fill="#333333"/>
</g>
<g filter="url(#filter4_d_114_1058)">
<rect x="1053.8" y="131" width="209.2" height="200" rx="36" fill="white" shape-rendering="crispEdges"/>
<g clip-path="url(#clip4_114_1058)">
<mask id="mask1_114_1058" style="mask-type:luminance" maskUnits="userSpaceOnUse" x="1138" y="184" width="41" height="40">
<path d="M1138.4 184H1178.4V224H1138.4V184Z" fill="white"/>
</mask>
<g mask="url(#mask1_114_1058)">
<path d="M1150.2 201.785L1140.81 200.883L1148.38 193.313C1150.88 190.821 1154.65 190.354 1157.62 191.913" stroke="#333333" stroke-width="2.34375" stroke-miterlimit="22.926" stroke-linecap="round" stroke-linejoin="round"/>
<path d="M1160.63 212.359L1161.52 221.594L1169.09 214.024C1171.68 211.441 1172.08 207.485 1170.32 204.468" stroke="#333333" stroke-width="2.34375" stroke-miterlimit="22.926" stroke-linecap="round" stroke-linejoin="round"/>
<path d="M1170.18 204.391C1169.61 205.044 1169.02 205.686 1168.39 206.314C1165.23 209.471 1161.71 211.838 1158.24 213.324C1157.22 213.759 1156.1 213.542 1155.32 212.76L1149.63 207.077C1148.85 206.294 1148.63 205.175 1149.07 204.157C1150.55 200.681 1152.92 197.16 1156.08 194.003C1162.7 187.378 1170.93 184.231 1176.98 185.411C1178.05 190.893 1175.57 198.15 1170.18 204.391Z" stroke="#333333" stroke-width="2.34375" stroke-miterlimit="22.926" stroke-linecap="round" stroke-linejoin="round"/>
<path d="M1167.04 186.698L1175.41 195.066" stroke="#333333" stroke-width="2.34375" stroke-miterlimit="22.926" stroke-linecap="round" stroke-linejoin="round"/>
<path d="M1151.46 201.391L1161.04 210.979" stroke="#333333" stroke-width="2.34375" stroke-miterlimit="22.926" stroke-linecap="round" stroke-linejoin="round"/>
<path d="M1166.11 196.279C1167.15 197.316 1167.15 198.997 1166.11 200.033C1165.08 201.07 1163.4 201.07 1162.36 200.033C1161.32 198.997 1161.32 197.316 1162.36 196.279C1163.4 195.243 1165.08 195.243 1166.11 196.279Z" stroke="#333333" stroke-width="2.34375" stroke-miterlimit="22.926" stroke-linecap="round" stroke-linejoin="round"/>
<path d="M1149.02 213.385L1139.57 222.832" stroke="#333333" stroke-width="2.34375" stroke-miterlimit="22.926" stroke-linecap="round" stroke-linejoin="round"/>
<path d="M1145.27 209.631L1142.08 212.822" stroke="#333333" stroke-width="2.34375" stroke-miterlimit="22.926" stroke-linecap="round" stroke-linejoin="round"/>
<path d="M1152.78 217.139L1149.58 220.33" stroke="#333333" stroke-width="2.34375" stroke-miterlimit="22.926" stroke-linecap="round" stroke-linejoin="round"/>
</g>
</g>
<path d="M1119.15 269H1111.94V248.636H1119.21C1121.26 248.636 1123.03 249.044 1124.5 249.859C1125.98 250.668 1127.12 251.831 1127.91 253.349C1128.72 254.867 1129.12 256.684 1129.12 258.798C1129.12 260.92 1128.72 262.742 1127.91 264.267C1127.12 265.792 1125.98 266.962 1124.48 267.777C1123 268.592 1121.22 269 1119.15 269ZM1116.24 265.311H1118.98C1120.25 265.311 1121.32 265.086 1122.19 264.635C1123.06 264.178 1123.72 263.472 1124.16 262.517C1124.6 261.556 1124.82 260.316 1124.82 258.798C1124.82 257.294 1124.6 256.064 1124.16 255.109C1123.72 254.155 1123.07 253.452 1122.2 253.001C1121.33 252.551 1120.26 252.325 1118.99 252.325H1116.24V265.311ZM1139.19 269.298C1137.62 269.298 1136.26 268.98 1135.13 268.344C1134 267.701 1133.14 266.793 1132.53 265.619C1131.92 264.439 1131.61 263.044 1131.61 261.433C1131.61 259.862 1131.92 258.483 1132.53 257.297C1133.14 256.11 1133.99 255.186 1135.1 254.523C1136.21 253.86 1137.52 253.528 1139.02 253.528C1140.03 253.528 1140.96 253.691 1141.83 254.016C1142.71 254.334 1143.47 254.814 1144.12 255.457C1144.78 256.1 1145.29 256.909 1145.65 257.884C1146.01 258.851 1146.2 259.985 1146.2 261.284V262.447H1133.3V259.822H1142.21C1142.21 259.213 1142.08 258.672 1141.81 258.202C1141.55 257.731 1141.18 257.363 1140.71 257.098C1140.24 256.826 1139.7 256.69 1139.09 256.69C1138.44 256.69 1137.87 256.839 1137.38 257.138C1136.89 257.429 1136.5 257.824 1136.22 258.321C1135.95 258.812 1135.8 259.358 1135.8 259.962V262.457C1135.8 263.213 1135.94 263.866 1136.21 264.416C1136.5 264.966 1136.9 265.391 1137.42 265.689C1137.93 265.987 1138.55 266.136 1139.26 266.136C1139.73 266.136 1140.16 266.07 1140.55 265.938C1140.94 265.805 1141.28 265.606 1141.55 265.341C1141.83 265.076 1142.04 264.751 1142.19 264.366L1146.11 264.625C1145.91 265.566 1145.5 266.388 1144.88 267.091C1144.27 267.787 1143.49 268.33 1142.52 268.722C1141.56 269.106 1140.45 269.298 1139.19 269.298ZM1153.2 248.636V269H1148.96V248.636H1153.2ZM1156.59 269V253.727H1160.83V269H1156.59ZM1158.72 251.759C1158.09 251.759 1157.55 251.55 1157.1 251.132C1156.65 250.708 1156.43 250.201 1156.43 249.611C1156.43 249.027 1156.65 248.527 1157.1 248.109C1157.55 247.685 1158.09 247.473 1158.72 247.473C1159.35 247.473 1159.88 247.685 1160.33 248.109C1160.78 248.527 1161.01 249.027 1161.01 249.611C1161.01 250.201 1160.78 250.708 1160.33 251.132C1159.88 251.55 1159.35 251.759 1158.72 251.759ZM1178.46 253.727L1173.12 269H1168.35L1163.01 253.727H1167.48L1170.65 264.655H1170.81L1173.97 253.727H1178.46ZM1187.09 269.298C1185.52 269.298 1184.17 268.98 1183.04 268.344C1181.91 267.701 1181.04 266.793 1180.43 265.619C1179.82 264.439 1179.52 263.044 1179.52 261.433C1179.52 259.862 1179.82 258.483 1180.43 257.297C1181.04 256.11 1181.9 255.186 1183.01 254.523C1184.12 253.86 1185.43 253.528 1186.92 253.528C1187.93 253.528 1188.87 253.691 1189.74 254.016C1190.61 254.334 1191.38 254.814 1192.03 255.457C1192.68 256.1 1193.19 256.909 1193.56 257.884C1193.92 258.851 1194.1 259.985 1194.1 261.284V262.447H1181.21V259.822H1190.12C1190.12 259.213 1189.98 258.672 1189.72 258.202C1189.45 257.731 1189.09 257.363 1188.61 257.098C1188.15 256.826 1187.61 256.69 1186.99 256.69C1186.35 256.69 1185.78 256.839 1185.28 257.138C1184.79 257.429 1184.41 257.824 1184.13 258.321C1183.85 258.812 1183.71 259.358 1183.7 259.962V262.457C1183.7 263.213 1183.84 263.866 1184.12 264.416C1184.41 264.966 1184.81 265.391 1185.32 265.689C1185.84 265.987 1186.45 266.136 1187.16 266.136C1187.63 266.136 1188.06 266.07 1188.46 265.938C1188.85 265.805 1189.18 265.606 1189.46 265.341C1189.74 265.076 1189.95 264.751 1190.1 264.366L1194.01 264.625C1193.82 265.566 1193.41 266.388 1192.79 267.091C1192.18 267.787 1191.39 268.33 1190.42 268.722C1189.46 269.106 1188.35 269.298 1187.09 269.298ZM1196.87 269V253.727H1200.97V256.392H1201.13C1201.41 255.444 1201.88 254.728 1202.54 254.244C1203.19 253.754 1203.95 253.509 1204.8 253.509C1205.01 253.509 1205.24 253.522 1205.49 253.548C1205.73 253.575 1205.95 253.611 1206.13 253.658V257.416C1205.94 257.357 1205.66 257.304 1205.31 257.257C1204.96 257.211 1204.64 257.188 1204.34 257.188C1203.72 257.188 1203.16 257.323 1202.67 257.595C1202.19 257.86 1201.81 258.232 1201.52 258.709C1201.24 259.186 1201.1 259.736 1201.1 260.359V269H1196.87Z" fill="#333333"/>
</g>
<defs>
<filter id="filter0_d_114_1058" x="47" y="123" width="229.2" height="220" filterUnits="userSpaceOnUse" color-interpolation-filters="sRGB">
<feFlood flood-opacity="0" result="BackgroundImageFix"/>
<feColorMatrix in="SourceAlpha" type="matrix" values="0 0 0 0 0 0 0 0 0 0 0 0 0 0 0 0 0 0 127 0" result="hardAlpha"/>
<feOffset dy="2"/>
<feGaussianBlur stdDeviation="5"/>
<feComposite in2="hardAlpha" operator="out"/>
<feColorMatrix type="matrix" values="0 0 0 0 1 0 0 0 0 1 0 0 0 0 1 0 0 0 0.2 0"/>
<feBlend mode="normal" in2="BackgroundImageFix" result="effect1_dropShadow_114_1058"/>
<feBlend mode="normal" in="SourceGraphic" in2="effect1_dropShadow_114_1058" result="shape"/>
</filter>
<filter id="filter1_d_114_1058" x="296.2" y="123" width="229.2" height="220" filterUnits="userSpaceOnUse" color-interpolation-filters="sRGB">
<feFlood flood-opacity="0" result="BackgroundImageFix"/>
<feColorMatrix in="SourceAlpha" type="matrix" values="0 0 0 0 0 0 0 0 0 0 0 0 0 0 0 0 0 0 127 0" result="hardAlpha"/>
<feOffset dy="2"/>
<feGaussianBlur stdDeviation="5"/>
<feComposite in2="hardAlpha" operator="out"/>
<feColorMatrix type="matrix" values="0 0 0 0 1 0 0 0 0 1 0 0 0 0 1 0 0 0 0.2 0"/>
<feBlend mode="normal" in2="BackgroundImageFix" result="effect1_dropShadow_114_1058"/>
<feBlend mode="normal" in="SourceGraphic" in2="effect1_dropShadow_114_1058" result="shape"/>
</filter>
<filter id="filter2_d_114_1058" x="545.4" y="123" width="229.2" height="220" filterUnits="userSpaceOnUse" color-interpolation-filters="sRGB">
<feFlood flood-opacity="0" result="BackgroundImageFix"/>
<feColorMatrix in="SourceAlpha" type="matrix" values="0 0 0 0 0 0 0 0 0 0 0 0 0 0 0 0 0 0 127 0" result="hardAlpha"/>
<feOffset dy="2"/>
<feGaussianBlur stdDeviation="5"/>
<feComposite in2="hardAlpha" operator="out"/>
<feColorMatrix type="matrix" values="0 0 0 0 1 0 0 0 0 1 0 0 0 0 1 0 0 0 0.2 0"/>
<feBlend mode="normal" in2="BackgroundImageFix" result="effect1_dropShadow_114_1058"/>
<feBlend mode="normal" in="SourceGraphic" in2="effect1_dropShadow_114_1058" result="shape"/>
</filter>
<filter id="filter3_d_114_1058" x="794.6" y="123" width="229.2" height="220" filterUnits="userSpaceOnUse" color-interpolation-filters="sRGB">
<feFlood flood-opacity="0" result="BackgroundImageFix"/>
<feColorMatrix in="SourceAlpha" type="matrix" values="0 0 0 0 0 0 0 0 0 0 0 0 0 0 0 0 0 0 127 0" result="hardAlpha"/>
<feOffset dy="2"/>
<feGaussianBlur stdDeviation="5"/>
<feComposite in2="hardAlpha" operator="out"/>
<feColorMatrix type="matrix" values="0 0 0 0 1 0 0 0 0 1 0 0 0 0 1 0 0 0 0.2 0"/>
<feBlend mode="normal" in2="BackgroundImageFix" result="effect1_dropShadow_114_1058"/>
<feBlend mode="normal" in="SourceGraphic" in2="effect1_dropShadow_114_1058" result="shape"/>
</filter>
<filter id="filter4_d_114_1058" x="1043.8" y="123" width="229.2" height="220" filterUnits="userSpaceOnUse" color-interpolation-filters="sRGB">
<feFlood flood-opacity="0" result="BackgroundImageFix"/>
<feColorMatrix in="SourceAlpha" type="matrix" values="0 0 0 0 0 0 0 0 0 0 0 0 0 0 0 0 0 0 127 0" result="hardAlpha"/>
<feOffset dy="2"/>
<feGaussianBlur stdDeviation="5"/>
<feComposite in2="hardAlpha" operator="out"/>
<feColorMatrix type="matrix" values="0 0 0 0 1 0 0 0 0 1 0 0 0 0 1 0 0 0 0.2 0"/>
<feBlend mode="normal" in2="BackgroundImageFix" result="effect1_dropShadow_114_1058"/>
<feBlend mode="normal" in="SourceGraphic" in2="effect1_dropShadow_114_1058" result="shape"/>
</filter>
<clipPath id="clip0_114_1058">
<rect width="40" height="40" fill="white" transform="translate(141.6 184)"/>
</clipPath>
<clipPath id="clip1_114_1058">
<rect width="40" height="40" fill="white" transform="translate(640 184)"/>
</clipPath>
<clipPath id="clip2_114_1058">
<rect width="40" height="40" fill="white" transform="translate(889.2 184)"/>
</clipPath>
<clipPath id="clip3_114_1058">
<rect width="40" height="40" fill="white" transform="translate(889.333 184.334)"/>
</clipPath>
<clipPath id="clip4_114_1058">
<rect width="40" height="40" fill="white" transform="translate(1138.4 184)"/>
</clipPath>
</defs>
</svg>
